<svg id="mermaid-f119b31c" width="100%" xmlns="http://www.w3.org/2000/svg" class="flowchart" style="max-width: 100%;" viewBox="-8 -8 816 616" role="graphics-document document" aria-roledescription="flowchart-v2"><style>#mermaid-f119b31c{font-family:"trebuchet ms",verdana,arial,sans-serif;font-size:16px;fill:#ccc;}@keyframes edge-animation-frame{from{stroke-dashoffset:0;}}@keyframes dash{to{stroke-dashoffset:0;}}#mermaid-f119b31c .edge-animation-slow{stroke-dasharray:9,5!important;stroke-dashoffset:900;animation:dash 50s linear infinite;stroke-linecap:round;}#mermaid-f119b31c .edge-animation-fast{stroke-dasharray:9,5!important;stroke-dashoffset:900;animation:dash 20s linear infinite;stroke-linecap:round;}#mermaid-f119b31c .error-icon{fill:#a44141;}#mermaid-f119b31c .error-text{fill:#ddd;stroke:#ddd;}#mermaid-f119b31c .edge-thickness-normal{stroke-width:2px;}#mermaid-f119b31c .edge-thickness-thick{stroke-width:3.5px;}#mermaid-f119b31c .edge-pattern-solid{stroke-dasharray:0;}#mermaid-f119b31c .edge-thickness-invisible{stroke-width:0;fill:none;}#mermaid-f119b31c .edge-pattern-dashed{stroke-dasharray:3;}#mermaid-f119b31c .edge-pattern-dotted{stroke-dasharray:2;}#mermaid-f119b31c .marker{fill:lightgrey;stroke:#ffffff;}#mermaid-f119b31c .marker.cross{stroke:#ffffff;}#mermaid-f119b31c svg{font-family:"trebuchet ms",verdana,arial,sans-serif;font-size:16px;}#mermaid-f119b31c p{margin:0;}#mermaid-f119b31c .label{font-family:"trebuchet ms",verdana,arial,sans-serif;color:#ccc;}#mermaid-f119b31c .cluster-label text{fill:#F9FFFE;}#mermaid-f119b31c .cluster-label span{color:#F9FFFE;}#mermaid-f119b31c .cluster-label span p{background-color:transparent;}#mermaid-f119b31c .label text,#mermaid-f119b31c span{fill:#ccc;color:#ccc;}#mermaid-f119b31c .node rect,#mermaid-f119b31c .node circle,#mermaid-f119b31c .node ellipse,#mermaid-f119b31c .node polygon,#mermaid-f119b31c .node path{fill:#2f2f2f;stroke:#ffffff;stroke-width:2px;}#mermaid-f119b31c .rough-node .label text,#mermaid-f119b31c .node .label text,#mermaid-f119b31c .image-shape .label,#mermaid-f119b31c .icon-shape .label{text-anchor:middle;}#mermaid-f119b31c .node .katex path{fill:#000;stroke:#000;stroke-width:2px;}#mermaid-f119b31c .rough-node .label,#mermaid-f119b31c .node .label,#mermaid-f119b31c .image-shape .label,#mermaid-f119b31c .icon-shape .label{text-align:center;}#mermaid-f119b31c .node.clickable{cursor:pointer;}#mermaid-f119b31c .root .anchor path{fill:lightgrey!important;stroke-width:0;stroke:#ffffff;}#mermaid-f119b31c .arrowheadPath{fill:lightgrey;}#mermaid-f119b31c .edgePath .path{stroke:#ffffff;stroke-width:2.0px;}#mermaid-f119b31c .flowchart-link{stroke:#ffffff;fill:none;}#mermaid-f119b31c .edgeLabel{background-color:hsl(0, 0%, 34.4117647059%);text-align:center;}#mermaid-f119b31c .edgeLabel p{background-color:hsl(0, 0%, 34.4117647059%);}#mermaid-f119b31c .edgeLabel rect{opacity:0.5;background-color:hsl(0, 0%, 34.4117647059%);fill:hsl(0, 0%, 34.4117647059%);}#mermaid-f119b31c .labelBkg{background-color:rgba(87.75, 87.75, 87.75, 0.5);}#mermaid-f119b31c .cluster rect{fill:hsl(180, 1.5873015873%, 28.3529411765%);stroke:rgba(255, 255, 255, 0.25);stroke-width:2px;}#mermaid-f119b31c .cluster text{fill:#F9FFFE;}#mermaid-f119b31c .cluster span{color:#F9FFFE;}#mermaid-f119b31c div.mermaidTooltip{position:absolute;text-align:center;max-width: 100%;padding:2px;font-family:"trebuchet ms",verdana,arial,sans-serif;font-size:12px;background:hsl(20, 1.5873015873%, 12.3529411765%);border:1px solid rgba(255, 255, 255, 0.25);border-radius:2px;pointer-events:none;z-index:100;}#mermaid-f119b31c .flowchartTitleText{text-anchor:middle;font-size:18px;fill:#ccc;}#mermaid-f119b31c rect.text{fill:none;stroke-width:0;}#mermaid-f119b31c .icon-shape,#mermaid-f119b31c .image-shape{background-color:hsl(0, 0%, 34.4117647059%);text-align:center;}#mermaid-f119b31c .icon-shape p,#mermaid-f119b31c .image-shape p{background-color:hsl(0, 0%, 34.4117647059%);padding:2px;}#mermaid-f119b31c .icon-shape .label rect,#mermaid-f119b31c .image-shape .label rect{opacity:0.5;background-color:hsl(0, 0%, 34.4117647059%);fill:hsl(0, 0%, 34.4117647059%);}#mermaid-f119b31c .label-icon{display:inline-block;height:1em;overflow:visible;vertical-align:-0.125em;}#mermaid-f119b31c .node .label-icon path{fill:currentColor;stroke:revert;stroke-width:revert;}#mermaid-f119b31c :root{--mermaid-font-family:"trebuchet ms",verdana,arial,sans-serif;}</style><g><marker id="mermaid-f119b31c_flowchart-v2-pointEnd" class="marker flowchart-v2" viewBox="0 0 10 10" refX="5" refY="5" markerUnits="userSpaceOnUse" markerWidth="8" markerHeight="8" orient="auto"><path d="M 0 0 L 10 5 L 0 10 z" class="arrowMarkerPath" style="stroke-width: 1; stroke-dasharray: 1,0;"></path></marker><marker id="mermaid-f119b31c_flowchart-v2-pointStart" class="marker flowchart-v2" viewBox="0 0 10 10" refX="4.5" refY="5" markerUnits="userSpaceOnUse" markerWidth="8" markerHeight="8" orient="auto"><path d="M 0 5 L 10 10 L 10 0 z" class="arrowMarkerPath" style="stroke-width: 1; stroke-dasharray: 1,0;"></path></marker><marker id="mermaid-f119b31c_flowchart-v2-circleEnd" class="marker flowchart-v2" viewBox="0 0 10 10" refX="11" refY="5" markerUnits="userSpaceOnUse" markerWidth="11" markerHeight="11" orient="auto"><circle cx="5" cy="5" r="5" class="arrowMarkerPath" style="stroke-width: 1; stroke-dasharray: 1,0;"></circle></marker><marker id="mermaid-f119b31c_flowchart-v2-circleStart" class="marker flowchart-v2" viewBox="0 0 10 10" refX="-1" refY="5" markerUnits="userSpaceOnUse" markerWidth="11" markerHeight="11" orient="auto"><circle cx="5" cy="5" r="5" class="arrowMarkerPath" style="stroke-width: 1; stroke-dasharray: 1,0;"></circle></marker><marker id="mermaid-f119b31c_flowchart-v2-crossEnd" class="marker cross flowchart-v2" viewBox="0 0 11 11" refX="12" refY="5.2" markerUnits="userSpaceOnUse" markerWidth="11" markerHeight="11" orient="auto"><path d="M 1,1 l 9,9 M 10,1 l -9,9" class="arrowMarkerPath" style="stroke-width: 2; stroke-dasharray: 1,0;"></path></marker><marker id="mermaid-f119b31c_flowchart-v2-crossStart" class="marker cross flowchart-v2" viewBox="0 0 11 11" refX="-1" refY="5.2" markerUnits="userSpaceOnUse" markerWidth="11" markerHeight="11" orient="auto"><path d="M 1,1 l 9,9 M 10,1 l -9,9" class="arrowMarkerPath" style="stroke-width: 2; stroke-dasharray: 1,0;"></path></marker><g class="root"><g class="clusters"><g class="cluster " id="Execution" data-look="classic"><rect style="" x="8" y="3808" width="1720" height="11925"></rect><g class="cluster-label " transform="translate(468, 3808)"><g><rect class="background" style="stroke: none"></rect><text y="-10.1" style=""><tspan class="text-outer-tspan row" x="0" y="-0.1em" dy="1.1em"><tspan font-style="normal" class="text-inner-tspan" font-weight="normal">Execution</tspan><tspan font-style="normal" class="text-inner-tspan" font-weight="normal"> (run-execution-live</tspan><tspan font-style="normal" class="text-inner-tspan" font-weight="normal"> /</tspan><tspan font-style="normal" class="text-inner-tspan" font-weight="normal"> run-execution-only)</tspan></tspan></text></g></g></g><g class="cluster " id="Decision" data-look="classic"><rect style="" x="1748" y="2533" width="1720" height="14475"></rect><g class="cluster-label " transform="translate(2208, 2533)"><g><rect class="background" style="stroke: none"></rect><text y="-10.1" style=""><tspan class="text-outer-tspan row" x="0" y="-0.1em" dy="1.1em"><tspan font-style="normal" class="text-inner-tspan" font-weight="normal">DB</tspan><tspan font-style="normal" class="text-inner-tspan" font-weight="normal"> Decision</tspan><tspan font-style="normal" class="text-inner-tspan" font-weight="normal"> (bij</tspan><tspan font-style="normal" class="text-inner-tspan" font-weight="normal"> 2</tspan><tspan font-style="normal" class="text-inner-tspan" font-weight="normal"> pools)</tspan></tspan></text></g></g></g><g class="cluster " id="Ingest" data-look="classic"><rect style="" x="3488" y="8" width="5105" height="4450"></rect><g class="cluster-label " transform="translate(5640.5, 8)"><g><rect class="background" style="stroke: none"></rect><text y="-10.1" style=""><tspan class="text-outer-tspan row" x="0" y="-0.1em" dy="1.1em"><tspan font-style="normal" class="text-inner-tspan" font-weight="normal">Persistent</tspan><tspan font-style="normal" class="text-inner-tspan" font-weight="normal"> Ingest</tspan><tspan font-style="normal" class="text-inner-tspan" font-weight="normal"> (krakenbot</tspan><tspan font-style="normal" class="text-inner-tspan" font-weight="normal"> run-ingest)</tspan></tspan></text></g></g></g></g><g class="edgePaths"><path d="M3923,1883L3923,1937.167C3923,1991.333,3923,2099.667,3923,2208C3923,2316.333,3923,2424.667,4068.187,2515.842C4213.375,2607.017,4503.749,2681.034,4648.937,2718.043L4794.124,2755.051" id="L_Ticker_Writer_0" class=" edge-thickness-normal edge-pattern-solid edge-thickness-normal edge-pattern-solid flowchart-link" style=";" data-edge="true" data-et="edge" data-id="L_Ticker_Writer_0" data-points="W3sieCI6MzkyMywieSI6MTg4M30seyJ4IjozOTIzLCJ5IjoyMjA4fSx7IngiOjM5MjMsInkiOjI1MzN9LHsieCI6NDc5OCwieSI6Mjc1Ni4wMzkyMTU2ODYyNzQ1fV0=" marker-end="url(#mermaid-f119b31c_flowchart-v2-pointEnd)"></path><path d="M4773,1883L4773,1937.167C4773,1991.333,4773,2099.667,4773,2208C4773,2316.333,4773,2424.667,4777.919,2482.595C4782.838,2540.523,4792.677,2548.047,4797.596,2551.808L4802.515,2555.57" id="L_Trade_Writer_0" class=" edge-thickness-normal edge-pattern-solid edge-thickness-normal edge-pattern-solid flowchart-link" style=";" data-edge="true" data-et="edge" data-id="L_Trade_Writer_0" data-points="W3sieCI6NDc3MywieSI6MTg4M30seyJ4Ijo0NzczLCJ5IjoyMjA4fSx7IngiOjQ3NzMsInkiOjI1MzN9LHsieCI6NDgwNS42OTIzMDc2OTIzMDgsInkiOjI1NTh9XQ==" marker-end="url(#mermaid-f119b31c_flowchart-v2-pointEnd)"></path><path d="M5623,1883L5623,1937.167C5623,1991.333,5623,2099.667,5623,2208C5623,2316.333,5623,2424.667,5618.081,2482.595C5613.162,2540.523,5603.323,2548.047,5598.404,2551.808L5593.485,2555.57" id="L_L2_Writer_0" class=" edge-thickness-normal edge-pattern-solid edge-thickness-normal edge-pattern-solid flowchart-link" style=";" data-edge="true" data-et="edge" data-id="L_L2_Writer_0" data-points="W3sieCI6NTYyMywieSI6MTg4M30seyJ4Ijo1NjIzLCJ5IjoyMjA4fSx7IngiOjU2MjMsInkiOjI1MzN9LHsieCI6NTU5MC4zMDc2OTIzMDc2OTIsInkiOjI1NTh9XQ==" marker-end="url(#mermaid-f119b31c_flowchart-v2-pointEnd)"></path><path d="M6473,1883L6473,1937.167C6473,1991.333,6473,2099.667,6473,2208C6473,2316.333,6473,2424.667,6327.813,2515.842C6182.625,2607.017,5892.251,2681.034,5747.063,2718.043L5601.876,2755.051" id="L_L3_Writer_0" class=" edge-thickness-normal edge-pattern-solid edge-thickness-normal edge-pattern-solid flowchart-link" style=";" data-edge="true" data-et="edge" data-id="L_L3_Writer_0" data-points="W3sieCI6NjQ3MywieSI6MTg4M30seyJ4Ijo2NDczLCJ5IjoyMjA4fSx7IngiOjY0NzMsInkiOjI1MzN9LHsieCI6NTU5OCwieSI6Mjc1Ni4wMzkyMTU2ODYyNzQ1fV0=" marker-end="url(#mermaid-f119b31c_flowchart-v2-pointEnd)"></path><path d="M5198,3158L5198,3212.167C5198,3266.333,5198,3374.667,5198,3483C5198,3591.333,5198,3699.667,5482.341,3797.63C5766.682,3895.593,6335.364,3983.186,6619.706,4026.983L6904.047,4070.78" id="L_Writer_DB_Ingest_0" class=" edge-thickness-normal edge-pattern-solid edge-thickness-normal edge-pattern-solid flowchart-link" style=";" data-edge="true" data-et="edge" data-id="L_Writer_DB_Ingest_0" data-points="W3sieCI6NTE5OCwieSI6MzE1OH0seyJ4Ijo1MTk4LCJ5IjozNDgzfSx7IngiOjUxOTgsInkiOjM4MDh9LHsieCI6NjkwOCwieSI6NDA3MS4zODg2MjU1OTI0MTd9XQ==" marker-end="url(#mermaid-f119b31c_flowchart-v2-pointEnd)"></path><path d="M7529,633L7492.167,687.167C7455.333,741.333,7381.667,849.667,7344.833,1008C7308,1166.333,7308,1374.667,7308,1583C7308,1791.333,7308,1999.667,7308,2158C7308,2316.333,7308,2424.667,7308,2482.333C7308,2540,7308,2547,7308,2550.5L7308,2554" id="L_UM_Lineage_0" class=" edge-thickness-normal edge-pattern-solid edge-thickness-normal edge-pattern-solid flowchart-link" style=";" data-edge="true" data-et="edge" data-id="L_UM_Lineage_0" data-points="W3sieCI6NzUyOSwieSI6NjMzfSx7IngiOjczMDgsInkiOjk1OH0seyJ4Ijo3MzA4LCJ5IjoxNTgzfSx7IngiOjczMDgsInkiOjIyMDh9LHsieCI6NzMwOCwieSI6MjUzM30seyJ4Ijo3MzA4LCJ5IjoyNTU4fV0=" marker-end="url(#mermaid-f119b31c_flowchart-v2-pointEnd)"></path><path d="M7937,633L7973.833,687.167C8010.667,741.333,8084.333,849.667,8121.167,957.333C8158,1065,8158,1172,8158,1225.5L8158,1279" id="L_UM_Epoch_0" class=" edge-thickness-normal edge-pattern-solid edge-thickness-normal edge-pattern-solid flowchart-link" style=";" data-edge="true" data-et="edge" data-id="L_UM_Epoch_0" data-points="W3sieCI6NzkzNywieSI6NjMzfSx7IngiOjgxNTgsInkiOjk1OH0seyJ4Ijo4MTU4LCJ5IjoxMjgzfV0=" marker-end="url(#mermaid-f119b31c_flowchart-v2-pointEnd)"></path><path d="M8158,1883L8158,1937.167C8158,1991.333,8158,2099.667,8158,2208C8158,2316.333,8158,2424.667,8158,2482.333C8158,2540,8158,2547,8158,2550.5L8158,2554" id="L_Epoch_Snap_0" class=" edge-thickness-normal edge-pattern-solid edge-thickness-normal edge-pattern-solid flowchart-link" style=";" data-edge="true" data-et="edge" data-id="L_Epoch_Snap_0" data-points="W3sieCI6ODE1OCwieSI6MTg4M30seyJ4Ijo4MTU4LCJ5IjoyMjA4fSx7IngiOjgxNTgsInkiOjI1MzN9LHsieCI6ODE1OCwieSI6MjU1OH1d" marker-end="url(#mermaid-f119b31c_flowchart-v2-pointEnd)"></path><path d="M8158,3158L8158,3212.167C8158,3266.333,8158,3374.667,8158,3483C8158,3591.333,8158,3699.667,8083.623,3782.272C8009.245,3864.877,7860.491,3921.754,7786.114,3950.192L7711.736,3978.63" id="L_Snap_DB_Ingest_0" class=" edge-thickness-normal edge-pattern-solid edge-thickness-normal edge-pattern-solid flowchart-link" style=";" data-edge="true" data-et="edge" data-id="L_Snap_DB_Ingest_0" data-points="W3sieCI6ODE1OCwieSI6MzE1OH0seyJ4Ijo4MTU4LCJ5IjozNDgzfSx7IngiOjgxNTgsInkiOjM4MDh9LHsieCI6NzcwOCwieSI6Mzk4MC4wNTg4MjM1Mjk0MTE3fV0=" marker-end="url(#mermaid-f119b31c_flowchart-v2-pointEnd)"></path><path d="M7308,3158L7308,3212.167C7308,3266.333,7308,3374.667,7308,3483C7308,3591.333,7308,3699.667,7308,3757.333C7308,3815,7308,3822,7308,3825.5L7308,3829" id="L_Lineage_DB_Ingest_0" class=" edge-thickness-normal edge-pattern-solid edge-thickness-normal edge-pattern-solid flowchart-link" style=";" data-edge="true" data-et="edge" data-id="L_Lineage_DB_Ingest_0" data-points="W3sieCI6NzMwOCwieSI6MzE1OH0seyJ4Ijo3MzA4LCJ5IjozNDgzfSx7IngiOjczMDgsInkiOjM4MDh9LHsieCI6NzMwOCwieSI6MzgzM31d" marker-end="url(#mermaid-f119b31c_flowchart-v2-pointEnd)"></path><path d="M465.5,4433L465.5,4437.167C465.5,4441.333,465.5,4449.667,465.5,4508C465.5,4566.333,465.5,4674.667,500.022,4782.44C534.545,4890.212,603.59,4997.425,638.112,5051.031L672.634,5104.637" id="L_EvalLoop_RefreshState_0" class=" edge-thickness-normal edge-pattern-solid edge-thickness-normal edge-pattern-solid flowchart-link" style=";" data-edge="true" data-et="edge" data-id="L_EvalLoop_RefreshState_0" data-points="W3sieCI6NDY1LjUsInkiOjQ0MzN9LHsieCI6NDY1LjUsInkiOjQ0NTh9LHsieCI6NDY1LjUsInkiOjQ3ODN9LHsieCI6Njc0LjgsInkiOjUxMDh9XQ==" marker-end="url(#mermaid-f119b31c_flowchart-v2-pointEnd)"></path><path d="M868,5708L868,5762.167C868,5816.333,868,5924.667,868,6032.333C868,6140,868,6247,868,6300.5L868,6354" id="L_RefreshState_Sync_0" class=" edge-thickness-normal edge-pattern-solid edge-thickness-normal edge-pattern-solid flowchart-link" style=";" data-edge="true" data-et="edge" data-id="L_RefreshState_Sync_0" data-points="W3sieCI6ODY4LCJ5Ijo1NzA4fSx7IngiOjg2OCwieSI6NjAzM30seyJ4Ijo4NjgsInkiOjYzNTh9XQ==" marker-end="url(#mermaid-f119b31c_flowchart-v2-pointEnd)"></path><path d="M868,6958L868,7012.167C868,7066.333,868,7174.667,1089.456,7308.724C1310.912,7442.781,1753.825,7602.562,1975.281,7682.452L2196.737,7762.342" id="L_Sync_State_D_0" class=" edge-thickness-normal edge-pattern-solid edge-thickness-normal edge-pattern-solid flowchart-link" style=";" data-edge="true" data-et="edge" data-id="L_Sync_State_D_0" data-points="W3sieCI6ODY4LCJ5Ijo2OTU4fSx7IngiOjg2OCwieSI6NzI4M30seyJ4IjoyMjAwLjUsInkiOjc3NjMuNjk5ODU1Njk5ODU2fV0=" marker-end="url(#mermaid-f119b31c_flowchart-v2-pointEnd)"></path><path d="M2407.3,3451.496L2372.417,4298.413C2337.533,5145.331,2267.767,6839.165,2077.237,7758.814C1886.708,8678.464,1575.416,8823.927,1419.77,8896.659L1264.124,8969.391" id="L_State_D_Readiness_0" class=" edge-thickness-normal edge-pattern-solid edge-thickness-normal edge-pattern-solid flowchart-link" style=";" data-edge="true" data-et="edge" data-id="L_State_D_Readiness_0" data-points="W3sieCI6MjQwNy4zLCJ5IjozNDUxLjQ5NjE3MzQ2OTM5NX0seyJ4IjoyMTk4LCJ5Ijo4NTMzfSx7IngiOjEyNjAuNSwieSI6ODk3MS4wODQxMTIxNDk1MzJ9XQ==" marker-end="url(#mermaid-f119b31c_flowchart-v2-pointEnd)"></path><path d="M860.5,9458L860.5,9512.167C860.5,9566.333,860.5,9674.667,860.5,9782.333C860.5,9890,860.5,9997,860.5,10050.5L860.5,10104" id="L_Readiness_Pipeline_0" class=" edge-thickness-normal edge-pattern-solid edge-thickness-normal edge-pattern-solid flowchart-link" style=";" data-edge="true" data-et="edge" data-id="L_Readiness_Pipeline_0" data-points="W3sieCI6ODYwLjUsInkiOjk0NTh9LHsieCI6ODYwLjUsInkiOjk3ODN9LHsieCI6ODYwLjUsInkiOjEwMTA4fV0=" marker-end="url(#mermaid-f119b31c_flowchart-v2-pointEnd)"></path><path d="M860.5,10708L860.5,10762.167C860.5,10816.333,860.5,10924.667,860.5,11032.333C860.5,11140,860.5,11247,860.5,11300.5L860.5,11354" id="L_Pipeline_Choke_0" class=" edge-thickness-normal edge-pattern-solid edge-thickness-normal edge-pattern-solid flowchart-link" style=";" data-edge="true" data-et="edge" data-id="L_Pipeline_Choke_0" data-points="W3sieCI6ODYwLjUsInkiOjEwNzA4fSx7IngiOjg2MC41LCJ5IjoxMTAzM30seyJ4Ijo4NjAuNSwieSI6MTEzNTh9XQ==" marker-end="url(#mermaid-f119b31c_flowchart-v2-pointEnd)"></path><path d="M860.5,11958L860.5,12012.167C860.5,12066.333,860.5,12174.667,860.5,12282.333C860.5,12390,860.5,12497,860.5,12550.5L860.5,12604" id="L_Choke_Submit_0" class=" edge-thickness-normal edge-pattern-solid edge-thickness-normal edge-pattern-solid flowchart-link" style=";" data-edge="true" data-et="edge" data-id="L_Choke_Submit_0" data-points="W3sieCI6ODYwLjUsInkiOjExOTU4fSx7IngiOjg2MC41LCJ5IjoxMjI4M30seyJ4Ijo4NjAuNSwieSI6MTI2MDh9XQ==" marker-end="url(#mermaid-f119b31c_flowchart-v2-pointEnd)"></path><path d="M660.1,13208L623.917,13262.167C587.733,13316.333,515.367,13424.667,479.183,13532.333C443,13640,443,13747,443,13800.5L443,13854" id="L_Submit_OT_0" class=" edge-thickness-normal edge-pattern-solid edge-thickness-normal edge-pattern-solid flowchart-link" style=";" data-edge="true" data-et="edge" data-id="L_Submit_OT_0" data-points="W3sieCI6NjYwLjEsInkiOjEzMjA4fSx7IngiOjQ0MywieSI6MTM1MzN9LHsieCI6NDQzLCJ5IjoxMzg1OH1d" marker-end="url(#mermaid-f119b31c_flowchart-v2-pointEnd)"></path><path d="M1068.1,13208L1105.583,13262.167C1143.067,13316.333,1218.033,13424.667,1255.517,13532.333C1293,13640,1293,13747,1293,13800.5L1293,13854" id="L_Submit_WS_Private_0" class=" edge-thickness-normal edge-pattern-solid edge-thickness-normal edge-pattern-solid flowchart-link" style=";" data-edge="true" data-et="edge" data-id="L_Submit_WS_Private_0" data-points="W3sieCI6MTA2OC4xLCJ5IjoxMzIwOH0seyJ4IjoxMjkzLCJ5IjoxMzUzM30seyJ4IjoxMjkzLCJ5IjoxMzg1OH1d" marker-end="url(#mermaid-f119b31c_flowchart-v2-pointEnd)"></path><path d="M1293,14458L1293,14512.167C1293,14566.333,1293,14674.667,1293,14782.333C1293,14890,1293,14997,1293,15050.5L1293,15104" id="L_WS_Private_Fills_0" class=" edge-thickness-normal edge-pattern-solid edge-thickness-normal edge-pattern-solid flowchart-link" style=";" data-edge="true" data-et="edge" data-id="L_WS_Private_Fills_0" data-points="W3sieCI6MTI5MywieSI6MTQ0NTh9LHsieCI6MTI5MywieSI6MTQ3ODN9LHsieCI6MTI5MywieSI6MTUxMDh9XQ==" marker-end="url(#mermaid-f119b31c_flowchart-v2-pointEnd)"></path><path d="M1293,15708L1293,15712.167C1293,15716.333,1293,15724.667,1441.333,15783C1589.667,15841.333,1886.333,15949.667,2034.667,16057.333C2183,16165,2183,16272,2183,16325.5L2183,16379" id="L_Fills_DB_Decision_0" class=" edge-thickness-normal edge-pattern-solid edge-thickness-normal edge-pattern-solid flowchart-link" style=";" data-edge="true" data-et="edge" data-id="L_Fills_DB_Decision_0" data-points="W3sieCI6MTI5MywieSI6MTU3MDh9LHsieCI6MTI5MywieSI6MTU3MzN9LHsieCI6MjE4MywieSI6MTYwNTh9LHsieCI6MjE4MywieSI6MTYzODN9XQ==" marker-end="url(#mermaid-f119b31c_flowchart-v2-pointEnd)"></path><path d="M7308,4433L7308,4437.167C7308,4441.333,7308,4449.667,6304.25,4508C5300.5,4566.333,3293,4674.667,2253.437,4782.446C1213.874,4890.225,1142.248,4997.449,1106.435,5051.062L1070.622,5104.674" id="L_DB_Ingest_RefreshState_0" class=" edge-thickness-normal edge-pattern-solid edge-thickness-normal edge-pattern-solid flowchart-link" style=";" data-edge="true" data-et="edge" data-id="L_DB_Ingest_RefreshState_0" data-points="W3sieCI6NzMwOCwieSI6NDQzM30seyJ4Ijo3MzA4LCJ5Ijo0NDU4fSx7IngiOjEyODUuNSwieSI6NDc4M30seyJ4IjoxMDY4LjQsInkiOjUxMDh9XQ==" marker-end="url(#mermaid-f119b31c_flowchart-v2-pointEnd)"></path><path d="M2800.9,3090.027L2837.083,3997.189C2873.267,4904.351,2945.633,6718.676,2689.54,7710.506C2433.447,8702.337,1848.895,8871.675,1556.618,8956.343L1264.342,9041.012" id="L_State_D_Readiness_2" class=" edge-thickness-normal edge-pattern-solid edge-thickness-normal edge-pattern-solid flowchart-link" style=";" data-edge="true" data-et="edge" data-id="L_State_D_Readiness_2" data-points="W3sieCI6MjgwMC45LCJ5IjozMDkwLjAyNjc4NTcxNDI4fSx7IngiOjMwMTgsInkiOjg1MzN9LHsieCI6MTI2MC41LCJ5Ijo5MDQyLjEyNTE0NDg0MzU2OX1d" marker-end="url(#mermaid-f119b31c_flowchart-v2-pointEnd)"></path><path d="M2608,3158L2608,3212.167C2608,3266.333,2608,3374.667,2608,3483C2608,3591.333,2608,3699.667,2318.242,3797.787C2028.485,3895.908,1448.97,3983.816,1159.212,4027.769L869.455,4071.723" id="L_Epoch_D_EvalLoop_0" class=" edge-thickness-normal edge-pattern-solid edge-thickness-normal edge-pattern-solid flowchart-link" style=";" data-edge="true" data-et="edge" data-id="L_Epoch_D_EvalLoop_0" data-points="W3sieCI6MjYwOCwieSI6MzE1OH0seyJ4IjoyNjA4LCJ5IjozNDgzfSx7IngiOjI2MDgsInkiOjM4MDh9LHsieCI6ODY1LjUsInkiOjQwNzIuMzIzMjIwNTM2NzU2M31d" marker-end="url(#mermaid-f119b31c_flowchart-v2-pointEnd)"></path></g><g class="edgeLabels"><g class="edgeLabel"><g class="label" data-id="L_Ticker_Writer_0" transform="translate(-400, -300)"><text y="-10.1" text-anchor="middle"><tspan class="text-outer-tspan row" x="0" y="-0.1em" dy="1.1em" text-anchor="middle"></tspan></text></g></g><g><rect class="background" style="stroke: none"></rect></g><g class="edgeLabel"><g class="label" data-id="L_Trade_Writer_0" transform="translate(-400, -300)"><text y="-10.1" text-anchor="middle"><tspan class="text-outer-tspan row" x="0" y="-0.1em" dy="1.1em" text-anchor="middle"></tspan></text></g></g><g><rect class="background" style="stroke: none"></rect></g><g class="edgeLabel"><g class="label" data-id="L_L2_Writer_0" transform="translate(-400, -300)"><text y="-10.1" text-anchor="middle"><tspan class="text-outer-tspan row" x="0" y="-0.1em" dy="1.1em" text-anchor="middle"></tspan></text></g></g><g><rect class="background" style="stroke: none"></rect></g><g class="edgeLabel"><g class="label" data-id="L_L3_Writer_0" transform="translate(-400, -300)"><text y="-10.1" text-anchor="middle"><tspan class="text-outer-tspan row" x="0" y="-0.1em" dy="1.1em" text-anchor="middle"></tspan></text></g></g><g><rect class="background" style="stroke: none"></rect></g><g class="edgeLabel"><g class="label" data-id="L_Writer_DB_Ingest_0" transform="translate(-400, -300)"><text y="-10.1" text-anchor="middle"><tspan class="text-outer-tspan row" x="0" y="-0.1em" dy="1.1em" text-anchor="middle"></tspan></text></g></g><g><rect class="background" style="stroke: none"></rect></g><g class="edgeLabel"><g class="label" data-id="L_UM_Lineage_0" transform="translate(-400, -300)"><text y="-10.1" text-anchor="middle"><tspan class="text-outer-tspan row" x="0" y="-0.1em" dy="1.1em" text-anchor="middle"></tspan></text></g></g><g><rect class="background" style="stroke: none"></rect></g><g class="edgeLabel"><g class="label" data-id="L_UM_Epoch_0" transform="translate(-400, -300)"><text y="-10.1" text-anchor="middle"><tspan class="text-outer-tspan row" x="0" y="-0.1em" dy="1.1em" text-anchor="middle"></tspan></text></g></g><g><rect class="background" style="stroke: none"></rect></g><g class="edgeLabel"><g class="label" data-id="L_Epoch_Snap_0" transform="translate(-400, -300)"><text y="-10.1" text-anchor="middle"><tspan class="text-outer-tspan row" x="0" y="-0.1em" dy="1.1em" text-anchor="middle"></tspan></text></g></g><g><rect class="background" style="stroke: none"></rect></g><g class="edgeLabel"><g class="label" data-id="L_Snap_DB_Ingest_0" transform="translate(-400, -300)"><text y="-10.1" text-anchor="middle"><tspan class="text-outer-tspan row" x="0" y="-0.1em" dy="1.1em" text-anchor="middle"></tspan></text></g></g><g><rect class="background" style="stroke: none"></rect></g><g class="edgeLabel"><g class="label" data-id="L_Lineage_DB_Ingest_0" transform="translate(-400, -300)"><text y="-10.1" text-anchor="middle"><tspan class="text-outer-tspan row" x="0" y="-0.1em" dy="1.1em" text-anchor="middle"></tspan></text></g></g><g><rect class="background" style="stroke: none"></rect></g><g class="edgeLabel"><g class="label" data-id="L_EvalLoop_RefreshState_0" transform="translate(-400, -300)"><text y="-10.1" text-anchor="middle"><tspan class="text-outer-tspan row" x="0" y="-0.1em" dy="1.1em" text-anchor="middle"></tspan></text></g></g><g><rect class="background" style="stroke: none"></rect></g><g class="edgeLabel"><g class="label" data-id="L_RefreshState_Sync_0" transform="translate(-400, -300)"><text y="-10.1" text-anchor="middle"><tspan class="text-outer-tspan row" x="0" y="-0.1em" dy="1.1em" text-anchor="middle"></tspan></text></g></g><g><rect class="background" style="stroke: none"></rect></g><g class="edgeLabel"><g class="label" data-id="L_Sync_State_D_0" transform="translate(-400, -300)"><text y="-10.1" text-anchor="middle"><tspan class="text-outer-tspan row" x="0" y="-0.1em" dy="1.1em" text-anchor="middle"></tspan></text></g></g><g><rect class="background" style="stroke: none"></rect></g><g class="edgeLabel"><g class="label" data-id="L_State_D_Readiness_0" transform="translate(-400, -300)"><text y="-10.1" text-anchor="middle"><tspan class="text-outer-tspan row" x="0" y="-0.1em" dy="1.1em" text-anchor="middle"></tspan></text></g></g><g><rect class="background" style="stroke: none"></rect></g><g class="edgeLabel"><g class="label" data-id="L_Readiness_Pipeline_0" transform="translate(-400, -300)"><text y="-10.1" text-anchor="middle"><tspan class="text-outer-tspan row" x="0" y="-0.1em" dy="1.1em" text-anchor="middle"></tspan></text></g></g><g><rect class="background" style="stroke: none"></rect></g><g class="edgeLabel"><g class="label" data-id="L_Pipeline_Choke_0" transform="translate(-400, -300)"><text y="-10.1" text-anchor="middle"><tspan class="text-outer-tspan row" x="0" y="-0.1em" dy="1.1em" text-anchor="middle"></tspan></text></g></g><g><rect class="background" style="stroke: none"></rect></g><g class="edgeLabel"><g class="label" data-id="L_Choke_Submit_0" transform="translate(-400, -300)"><text y="-10.1" text-anchor="middle"><tspan class="text-outer-tspan row" x="0" y="-0.1em" dy="1.1em" text-anchor="middle"></tspan></text></g></g><g><rect class="background" style="stroke: none"></rect></g><g class="edgeLabel"><g class="label" data-id="L_Submit_OT_0" transform="translate(-400, -300)"><text y="-10.1" text-anchor="middle"><tspan class="text-outer-tspan row" x="0" y="-0.1em" dy="1.1em" text-anchor="middle"></tspan></text></g></g><g><rect class="background" style="stroke: none"></rect></g><g class="edgeLabel"><g class="label" data-id="L_Submit_WS_Private_0" transform="translate(-400, -300)"><text y="-10.1" text-anchor="middle"><tspan class="text-outer-tspan row" x="0" y="-0.1em" dy="1.1em" text-anchor="middle"></tspan></text></g></g><g><rect class="background" style="stroke: none"></rect></g><g class="edgeLabel"><g class="label" data-id="L_WS_Private_Fills_0" transform="translate(-400, -300)"><text y="-10.1" text-anchor="middle"><tspan class="text-outer-tspan row" x="0" y="-0.1em" dy="1.1em" text-anchor="middle"></tspan></text></g></g><g><rect class="background" style="stroke: none"></rect></g><g class="edgeLabel"><g class="label" data-id="L_Fills_DB_Decision_0" transform="translate(-400, -300)"><text y="-10.1" text-anchor="middle"><tspan class="text-outer-tspan row" x="0" y="-0.1em" dy="1.1em" text-anchor="middle"></tspan></text></g></g><g><rect class="background" style="stroke: none"></rect></g><g class="edgeLabel"><g class="label" data-id="L_DB_Ingest_RefreshState_0" transform="translate(-400, -300)"><text y="-10.1" text-anchor="middle"><tspan class="text-outer-tspan row" x="0" y="-0.1em" dy="1.1em" text-anchor="middle"></tspan></text></g></g><g><rect class="background" style="stroke: none"></rect></g><g class="edgeLabel"><g class="label" data-id="L_State_D_Readiness_2" transform="translate(-400, -300)"><text y="-10.1" text-anchor="middle"><tspan class="text-outer-tspan row" x="0" y="-0.1em" dy="1.1em" text-anchor="middle"></tspan></text></g></g><g><rect class="background" style="stroke: none"></rect></g><g class="edgeLabel"><g class="label" data-id="L_Epoch_D_EvalLoop_0" transform="translate(-400, -300)"><text y="-10.1" text-anchor="middle"><tspan class="text-outer-tspan row" x="0" y="-0.1em" dy="1.1em" text-anchor="middle"></tspan></text></g></g><g><rect class="background" style="stroke: none"></rect></g></g><g class="nodes"><g class="node default  " id="flowchart-Ticker-0" transform="translate(3923, 1583)"><rect class="basic label-container" style="" x="-30" y="-15" width="60" height="30"></rect><g class="label" style="" transform="translate(0, 0)"><rect></rect><text x="0" y="0" text-anchor="middle" dominant-baseline="middle" style="font-size:16px;fill:#ccc;">Ticker WS</text></g></g><g class="node default  " id="flowchart-Trade-1" transform="translate(4773, 1583)"><rect class="basic label-container" style="" x="-30" y="-15" width="60" height="30"></rect><g class="label" style="" transform="translate(0, 0)"><rect></rect><text x="0" y="0" text-anchor="middle" dominant-baseline="middle" style="font-size:16px;fill:#ccc;">Trade WS</text></g></g><g class="node default  " id="flowchart-L2-2" transform="translate(5623, 1583)"><rect class="basic label-container" style="" x="-30" y="-15" width="60" height="30"></rect><g class="label" style="" transform="translate(0, 0)"><rect></rect><text x="0" y="0" text-anchor="middle" dominant-baseline="middle" style="font-size:16px;fill:#ccc;">L2 feed</text></g></g><g class="node default  " id="flowchart-L3-3" transform="translate(6473, 1583)"><rect class="basic label-container" style="" x="-30" y="-15" width="60" height="30"></rect><g class="label" style="" transform="translate(0, 0)"><rect></rect><text x="0" y="0" text-anchor="middle" dominant-baseline="middle" style="font-size:16px;fill:#ccc;">L3 feed</text></g></g><g class="node default  " id="flowchart-Writer-4" transform="translate(5198, 2858)"><rect class="basic label-container" style="" x="-30" y="-15" width="60" height="30"></rect><g class="label" style="" transform="translate(0, 0)"><rect></rect><text x="0" y="0" text-anchor="middle" dominant-baseline="middle" style="font-size:16px;fill:#ccc;">Async writer</text></g></g><g class="node default  " id="flowchart-UM-5" transform="translate(7733, 333)"><rect class="basic label-container" style="" x="-30" y="-15" width="60" height="30"></rect><g class="label" style="" transform="translate(0, 0)"><rect></rect><text x="0" y="0" text-anchor="middle" dominant-baseline="middle" style="font-size:16px;fill:#ccc;">UniverseManager</text></g></g><g class="node default  " id="flowchart-Lineage-6" transform="translate(7308, 2858)"><rect class="basic label-container" style="" x="-30" y="-15" width="60" height="30"></rect><g class="label" style="" transform="translate(0, 0)"><rect></rect><text x="0" y="0" text-anchor="middle" dominant-baseline="middle" style="font-size:16px;fill:#ccc;">ingest_lineage</text></g></g><g class="node default  " id="flowchart-Epoch-7" transform="translate(8158, 1583)"><rect class="basic label-container" style="" x="-30" y="-15" width="60" height="30"></rect><g class="label" style="" transform="translate(0, 0)"><rect></rect><text x="0" y="0" text-anchor="middle" dominant-baseline="middle" style="font-size:16px;fill:#ccc;">ingest_epochs</text></g></g><g class="node default  " id="flowchart-Snap-8" transform="translate(8158, 2858)"><rect class="basic label-container" style="" x="-30" y="-15" width="60" height="30"></rect><g class="label" style="" transform="translate(0, 0)"><rect></rect><text x="0" y="0" text-anchor="middle" dominant-baseline="middle" style="font-size:16px;fill:#ccc;">execution_universe_snapshots</text></g></g><g class="node default  " id="flowchart-DB_Ingest-18" transform="translate(7308, 4133)"><path d="M0,2.678571428571429 a7.5,2.678571428571429 0,0,0 15,0 a7.5,2.678571428571429 0,0,0 -15,0 l0,17.67857142857143 a7.5,2.678571428571429 0,0,0 15,0 l0,-17.67857142857143" class="basic label-container" style="" label-offset-y="2.678571428571429" transform="translate(-7.5, -11.517857142857144)"></path><g class="label" style="" transform="translate(0, 10)"><rect></rect><text x="0" y="0" text-anchor="middle" dominant-baseline="middle" style="font-size:16px;fill:#ccc;">DB Ingest</text></g></g><g class="node default  " id="flowchart-RefreshState-29" transform="translate(868, 5408)"><rect class="basic label-container" style="" x="-30" y="-15" width="60" height="30"></rect><g class="label" style="" transform="translate(0, 0)"><rect></rect><text x="0" y="0" text-anchor="middle" dominant-baseline="middle" style="font-size:16px;fill:#ccc;">refresh_run_symbol_state</text></g></g><g class="node default  " id="flowchart-Sync-30" transform="translate(868, 6658)"><rect class="basic label-container" style="" x="-30" y="-15" width="60" height="30"></rect><g class="label" style="" transform="translate(0, 0)"><rect></rect><text x="0" y="0" text-anchor="middle" dominant-baseline="middle" style="font-size:16px;fill:#ccc;">sync → DB Decision</text></g></g><g class="node default  " id="flowchart-DB_Decision-31" transform="translate(2183, 16683)"><path d="M0,2.678571428571429 a7.5,2.678571428571429 0,0,0 15,0 a7.5,2.678571428571429 0,0,0 -15,0 l0,17.67857142857143 a7.5,2.678571428571429 0,0,0 15,0 l0,-17.67857142857143" class="basic label-container" style="" label-offset-y="2.678571428571429" transform="translate(-7.5, -11.517857142857144)"></path><g class="label" style="" transform="translate(0, 10)"><rect></rect><text x="0" y="0" text-anchor="middle" dominant-baseline="middle" style="font-size:16px;fill:#ccc;">DB Decision</text></g></g><g class="node default  " id="flowchart-State_D-32" transform="translate(2600.5, 7908)"><path d="M0,2.678571428571429 a7.5,2.678571428571429 0,0,0 15,0 a7.5,2.678571428571429 0,0,0 -15,0 l0,17.67857142857143 a7.5,2.678571428571429 0,0,0 15,0 l0,-17.67857142857143" class="basic label-container" style="" label-offset-y="2.678571428571429" transform="translate(-7.5, -11.517857142857144)"></path><g class="label" style="" transform="translate(0, 10)"><rect></rect><text x="0" y="0" text-anchor="middle" dominant-baseline="middle" style="font-size:16px;fill:#ccc;">run_symbol_state</text></g></g><g class="node default  " id="flowchart-Epoch_D-33" transform="translate(2608, 2858)"><rect class="basic label-container" style="" x="-30" y="-15" width="60" height="30"></rect><g class="label" style="" transform="translate(0, 0)"><rect></rect><text x="0" y="0" text-anchor="middle" dominant-baseline="middle" style="font-size:16px;fill:#ccc;">epochs / snapshots</text></g></g><g class="node default  " id="flowchart-ExecTables-34" transform="translate(3033, 16683)"><rect class="basic label-container" style="" x="-30" y="-15" width="60" height="30"></rect><g class="label" style="" transform="translate(0, 0)"><rect></rect><text x="0" y="0" text-anchor="middle" dominant-baseline="middle" style="font-size:16px;fill:#ccc;">execution_orders / fills</text></g></g><g class="node default  " id="flowchart-EvalLoop-35" transform="translate(465.5, 4133)"><rect class="basic label-container" style="" x="-30" y="-15" width="60" height="30"></rect><g class="label" style="" transform="translate(0, 0)"><rect></rect><text x="0" y="0" text-anchor="middle" dominant-baseline="middle" style="font-size:16px;fill:#ccc;">Evaluation loop</text></g></g><g class="node default  " id="flowchart-Readiness-36" transform="translate(860.5, 9158)"><rect class="basic label-container" style="" x="-30" y="-15" width="60" height="30"></rect><g class="label" style="" transform="translate(0, 0)"><rect></rect><text x="0" y="0" text-anchor="middle" dominant-baseline="middle" style="font-size:16px;fill:#ccc;">run_readiness_analysis_for_run_from_state</text></g></g><g class="node default  " id="flowchart-Pipeline-37" transform="translate(860.5, 10408)"><rect class="basic label-container" style="" x="-30" y="-15" width="60" height="30"></rect><g class="label" style="" transform="translate(0, 0)"><rect></rect><text x="0" y="0" text-anchor="middle" dominant-baseline="middle" style="font-size:16px;fill:#ccc;">run_strategy_pipeline_with_readiness</text></g></g><g class="node default  " id="flowchart-Choke-38" transform="translate(860.5, 11658)"><rect class="basic label-container" style="" x="-30" y="-15" width="60" height="30"></rect><g class="label" style="" transform="translate(0, 0)"><rect></rect><text x="0" y="0" text-anchor="middle" dominant-baseline="middle" style="font-size:16px;fill:#ccc;">choke_decide</text></g></g><g class="node default  " id="flowchart-Submit-39" transform="translate(860.5, 12908)"><rect class="basic label-container" style="" x="-30" y="-15" width="60" height="30"></rect><g class="label" style="" transform="translate(0, 0)"><rect></rect><text x="0" y="0" text-anchor="middle" dominant-baseline="middle" style="font-size:16px;fill:#ccc;">submit_and_wait_for_execution_reports</text></g></g><g class="node default  " id="flowchart-OT-40" transform="translate(443, 14158)"><rect class="basic label-container" style="" x="-30" y="-15" width="60" height="30"></rect><g class="label" style="" transform="translate(0, 0)"><rect></rect><text x="0" y="0" text-anchor="middle" dominant-baseline="middle" style="font-size:16px;fill:#ccc;">OrderTracker</text></g></g><g class="node default  " id="flowchart-WS_Private-41" transform="translate(1293, 14158)"><rect class="basic label-container" style="" x="-30" y="-15" width="60" height="30"></rect><g class="label" style="" transform="translate(0, 0)"><rect></rect><text x="0" y="0" text-anchor="middle" dominant-baseline="middle" style="font-size:16px;fill:#ccc;">Private WS</text></g></g><g class="node default  " id="flowchart-Fills-61" transform="translate(1293, 15408)"><rect class="basic label-container" style="" x="-30" y="-15" width="60" height="30"></rect><g class="label" style="" transform="translate(0, 0)"><rect></rect><text x="0" y="0" text-anchor="middle" dominant-baseline="middle" style="font-size:16px;fill:#ccc;">fills_ledger / state_machine</text></g></g></g></g></g></svg>