<svg id="mermaid-3d3c44e3" width="100%" xmlns="http://www.w3.org/2000/svg" class="flowchart" style="max-width: 100%;" viewBox="-424 -324 4118.5 21106" role="graphics-document document" aria-roledescription="flowchart-v2"><style>#mermaid-3d3c44e3{font-family:"trebuchet ms",verdana,arial,sans-serif;font-size:58px;fill:#ccc;}@keyframes edge-animation-frame{from{stroke-dashoffset:0;}}@keyframes dash{to{stroke-dashoffset:0;}}#mermaid-3d3c44e3 .edge-animation-slow{stroke-dasharray:9,5!important;stroke-dashoffset:900;animation:dash 50s linear infinite;stroke-linecap:round;}#mermaid-3d3c44e3 .edge-animation-fast{stroke-dasharray:9,5!important;stroke-dashoffset:900;animation:dash 20s linear infinite;stroke-linecap:round;}#mermaid-3d3c44e3 .error-icon{fill:#a44141;}#mermaid-3d3c44e3 .error-text{fill:#ddd;stroke:#ddd;}#mermaid-3d3c44e3 .edge-thickness-normal{stroke-width:7px;}#mermaid-3d3c44e3 .edge-thickness-thick{stroke-width:3.5px;}#mermaid-3d3c44e3 .edge-pattern-solid{stroke-dasharray:0;}#mermaid-3d3c44e3 .edge-thickness-invisible{stroke-width:0;fill:none;}#mermaid-3d3c44e3 .edge-pattern-dashed{stroke-dasharray:3;}#mermaid-3d3c44e3 .edge-pattern-dotted{stroke-dasharray:2;}#mermaid-3d3c44e3 .marker{fill:lightgrey;stroke:#ffffff;}#mermaid-3d3c44e3 .marker.cross{stroke:#ffffff;}#mermaid-3d3c44e3 svg{font-family:"trebuchet ms",verdana,arial,sans-serif;font-size:58px;}#mermaid-3d3c44e3 p{margin:0;}#mermaid-3d3c44e3 .label{font-family:"trebuchet ms",verdana,arial,sans-serif;color:#ccc;}#mermaid-3d3c44e3 .cluster-label text{fill:#F9FFFE;}#mermaid-3d3c44e3 .cluster-label span{color:#F9FFFE;}#mermaid-3d3c44e3 .cluster-label span p{background-color:transparent;}#mermaid-3d3c44e3 .label text,#mermaid-3d3c44e3 span{fill:#ccc;color:#ccc;}#mermaid-3d3c44e3 .node rect,#mermaid-3d3c44e3 .node circle,#mermaid-3d3c44e3 .node ellipse,#mermaid-3d3c44e3 .node polygon,#mermaid-3d3c44e3 .node path{fill:#2f2f2f;stroke:#ffffff;stroke-width:7px;}#mermaid-3d3c44e3 .rough-node .label text,#mermaid-3d3c44e3 .node .label text,#mermaid-3d3c44e3 .image-shape .label,#mermaid-3d3c44e3 .icon-shape .label{text-anchor:middle;}#mermaid-3d3c44e3 .node .katex path{fill:#000;stroke:#000;stroke-width:7px;}#mermaid-3d3c44e3 .rough-node .label,#mermaid-3d3c44e3 .node .label,#mermaid-3d3c44e3 .image-shape .label,#mermaid-3d3c44e3 .icon-shape .label{text-align:center;}#mermaid-3d3c44e3 .node.clickable{cursor:pointer;}#mermaid-3d3c44e3 .root .anchor path{fill:lightgrey!important;stroke-width:0;stroke:#ffffff;}#mermaid-3d3c44e3 .arrowheadPath{fill:lightgrey;}#mermaid-3d3c44e3 .edgePath .path{stroke:#ffffff;stroke-width:7px;}#mermaid-3d3c44e3 .flowchart-link{stroke:#ffffff;fill:none;}#mermaid-3d3c44e3 .edgeLabel{background-color:hsl(0, 0%, 34.4117647059%);text-align:center;}#mermaid-3d3c44e3 .edgeLabel p{background-color:hsl(0, 0%, 34.4117647059%);}#mermaid-3d3c44e3 .edgeLabel rect{opacity:0.5;background-color:hsl(0, 0%, 34.4117647059%);fill:hsl(0, 0%, 34.4117647059%);}#mermaid-3d3c44e3 .labelBkg{background-color:rgba(87.75, 87.75, 87.75, 0.5);}#mermaid-3d3c44e3 .cluster rect{fill:hsl(180, 1.5873015873%, 28.3529411765%);stroke:rgba(255, 255, 255, 0.25);stroke-width:7px;}#mermaid-3d3c44e3 .cluster text{fill:#F9FFFE;}#mermaid-3d3c44e3 .cluster span{color:#F9FFFE;}#mermaid-3d3c44e3 div.mermaidTooltip{position:absolute;text-align:center;max-width: 100%;padding:2px;font-family:"trebuchet ms",verdana,arial,sans-serif;font-size:44px;background:hsl(20, 1.5873015873%, 12.3529411765%);border:1px solid rgba(255, 255, 255, 0.25);border-radius:2px;pointer-events:none;z-index:100;}#mermaid-3d3c44e3 .flowchartTitleText{text-anchor:middle;font-size:65px;fill:#ccc;}#mermaid-3d3c44e3 rect.text{fill:none;stroke-width:0;}#mermaid-3d3c44e3 .icon-shape,#mermaid-3d3c44e3 .image-shape{background-color:hsl(0, 0%, 34.4117647059%);text-align:center;}#mermaid-3d3c44e3 .icon-shape p,#mermaid-3d3c44e3 .image-shape p{background-color:hsl(0, 0%, 34.4117647059%);padding:2px;}#mermaid-3d3c44e3 .icon-shape .label rect,#mermaid-3d3c44e3 .image-shape .label rect{opacity:0.5;background-color:hsl(0, 0%, 34.4117647059%);fill:hsl(0, 0%, 34.4117647059%);}#mermaid-3d3c44e3 .label-icon{display:inline-block;height:1em;overflow:visible;vertical-align:-0.125em;}#mermaid-3d3c44e3 .node .label-icon path{fill:currentColor;stroke:revert;stroke-width:revert;}#mermaid-3d3c44e3 :root{--mermaid-font-family:"trebuchet ms",verdana,arial,sans-serif;}</style><g><marker id="mermaid-3d3c44e3_flowchart-v2-pointEnd" class="marker flowchart-v2" viewBox="0 0 10 10" refX="5" refY="5" markerUnits="userSpaceOnUse" markerWidth="8" markerHeight="8" orient="auto"><path d="M 0 0 L 10 5 L 0 10 z" class="arrowMarkerPath" style="stroke-width: 1; stroke-dasharray: 1,0;"></path></marker><marker id="mermaid-3d3c44e3_flowchart-v2-pointStart" class="marker flowchart-v2" viewBox="0 0 10 10" refX="4.5" refY="5" markerUnits="userSpaceOnUse" markerWidth="8" markerHeight="8" orient="auto"><path d="M 0 5 L 10 10 L 10 0 z" class="arrowMarkerPath" style="stroke-width: 1; stroke-dasharray: 1,0;"></path></marker><marker id="mermaid-3d3c44e3_flowchart-v2-circleEnd" class="marker flowchart-v2" viewBox="0 0 10 10" refX="11" refY="5" markerUnits="userSpaceOnUse" markerWidth="11" markerHeight="11" orient="auto"><circle cx="5" cy="5" r="5" class="arrowMarkerPath" style="stroke-width: 1; stroke-dasharray: 1,0;"></circle></marker><marker id="mermaid-3d3c44e3_flowchart-v2-circleStart" class="marker flowchart-v2" viewBox="0 0 10 10" refX="-1" refY="5" markerUnits="userSpaceOnUse" markerWidth="11" markerHeight="11" orient="auto"><circle cx="5" cy="5" r="5" class="arrowMarkerPath" style="stroke-width: 1; stroke-dasharray: 1,0;"></circle></marker><marker id="mermaid-3d3c44e3_flowchart-v2-crossEnd" class="marker cross flowchart-v2" viewBox="0 0 11 11" refX="12" refY="5.2" markerUnits="userSpaceOnUse" markerWidth="11" markerHeight="11" orient="auto"><path d="M 1,1 l 9,9 M 10,1 l -9,9" class="arrowMarkerPath" style="stroke-width: 2; stroke-dasharray: 1,0;"></path></marker><marker id="mermaid-3d3c44e3_flowchart-v2-crossStart" class="marker cross flowchart-v2" viewBox="0 0 11 11" refX="-1" refY="5.2" markerUnits="userSpaceOnUse" markerWidth="11" markerHeight="11" orient="auto"><path d="M 1,1 l 9,9 M 10,1 l -9,9" class="arrowMarkerPath" style="stroke-width: 2; stroke-dasharray: 1,0;"></path></marker><g class="root"><g class="clusters"><g class="cluster " id="Execution" data-look="classic"><rect style="" x="1958" y="7558" width="1697.5" height="13200"></rect><g class="cluster-label " transform="translate(2406.75, 7558)"><g><rect class="background" style="stroke: none"></rect><text y="-10.1" style=""><tspan class="text-outer-tspan row" x="0" y="-0.1em" dy="1.1em"><tspan font-style="normal" class="text-inner-tspan" font-weight="normal">Execution</tspan><tspan font-style="normal" class="text-inner-tspan" font-weight="normal"> (run-execution-live</tspan><tspan font-style="normal" class="text-inner-tspan" font-weight="normal"> /</tspan><tspan font-style="normal" class="text-inner-tspan" font-weight="normal"> execution-only)</tspan></tspan></text></g></g></g><g class="cluster " id="Decision" data-look="classic"><rect style="" x="8" y="8833" width="1930" height="9400"></rect><g class="cluster-label " transform="translate(573, 8833)"><g><rect class="background" style="stroke: none"></rect><text y="-10.1" style=""><tspan class="text-outer-tspan row" x="0" y="-0.1em" dy="1.1em"><tspan font-style="normal" class="text-inner-tspan" font-weight="normal">DB</tspan><tspan font-style="normal" class="text-inner-tspan" font-weight="normal"> Decision</tspan><tspan font-style="normal" class="text-inner-tspan" font-weight="normal"> (bij</tspan><tspan font-style="normal" class="text-inner-tspan" font-weight="normal"> 2</tspan><tspan font-style="normal" class="text-inner-tspan" font-weight="normal"> pools)</tspan></tspan></text></g></g></g><g class="cluster " id="Ingest" data-look="classic"><rect style="" x="1950.5" y="8" width="1720" height="6900"></rect><g class="cluster-label " transform="translate(2410.5, 8)"><g><rect class="background" style="stroke: none"></rect><text y="-10.1" style=""><tspan class="text-outer-tspan row" x="0" y="-0.1em" dy="1.1em"><tspan font-style="normal" class="text-inner-tspan" font-weight="normal">Persistent</tspan><tspan font-style="normal" class="text-inner-tspan" font-weight="normal"> Ingest</tspan><tspan font-style="normal" class="text-inner-tspan" font-weight="normal"> (run-ingest)</tspan></tspan></text></g></g></g></g><g class="edgePaths"><path d="M2385.5,1883L2385.5,1937.167C2385.5,1991.333,2385.5,2099.667,2385.5,2207.333C2385.5,2315,2385.5,2422,2385.5,2475.5L2385.5,2529" id="L_WS_Writer_0" class=" edge-thickness-normal edge-pattern-solid edge-thickness-normal edge-pattern-solid flowchart-link" style=";" data-edge="true" data-et="edge" data-id="L_WS_Writer_0" data-points="W3sieCI6MjM4NS41LCJ5IjoxODgzfSx7IngiOjIzODUuNSwieSI6MjIwOH0seyJ4IjoyMzg1LjUsInkiOjI1MzN9XQ==" marker-end="url(#mermaid-3d3c44e3_flowchart-v2-pointEnd)"></path><path d="M2385.5,3133L2385.5,3187.167C2385.5,3241.333,2385.5,3349.667,2422.307,4341.278C2459.114,5332.89,2532.729,7207.78,2569.536,8145.225L2606.343,9082.67" id="L_Writer_DB_Ingest_0" class=" edge-thickness-normal edge-pattern-solid edge-thickness-normal edge-pattern-solid flowchart-link" style=";" data-edge="true" data-et="edge" data-id="L_Writer_DB_Ingest_0" data-points="W3sieCI6MjM4NS41LCJ5IjozMTMzfSx7IngiOjIzODUuNSwieSI6MzQ1OH0seyJ4IjoyNjA2LjUsInkiOjkwODYuNjY3MDkxODM2NzM2fV0=" marker-end="url(#mermaid-3d3c44e3_flowchart-v2-pointEnd)"></path><path d="M3235.5,633L3235.5,687.167C3235.5,741.333,3235.5,849.667,3235.5,957.333C3235.5,1065,3235.5,1172,3235.5,1225.5L3235.5,1279" id="L_UM_Epoch_0" class=" edge-thickness-normal edge-pattern-solid edge-thickness-normal edge-pattern-solid flowchart-link" style=";" data-edge="true" data-et="edge" data-id="L_UM_Epoch_0" data-points="W3sieCI6MzIzNS41LCJ5Ijo2MzN9LHsieCI6MzIzNS41LCJ5Ijo5NTh9LHsieCI6MzIzNS41LCJ5IjoxMjgzfV0=" marker-end="url(#mermaid-3d3c44e3_flowchart-v2-pointEnd)"></path><path d="M3235.5,1883L3235.5,1937.167C3235.5,1991.333,3235.5,2099.667,3235.5,2207.333C3235.5,2315,3235.5,2422,3235.5,2475.5L3235.5,2529" id="L_Epoch_Snap_0" class=" edge-thickness-normal edge-pattern-solid edge-thickness-normal edge-pattern-solid flowchart-link" style=";" data-edge="true" data-et="edge" data-id="L_Epoch_Snap_0" data-points="W3sieCI6MzIzNS41LCJ5IjoxODgzfSx7IngiOjMyMzUuNSwieSI6MjIwOH0seyJ4IjozMjM1LjUsInkiOjI1MzN9XQ==" marker-end="url(#mermaid-3d3c44e3_flowchart-v2-pointEnd)"></path><path d="M3235.5,3133L3235.5,3187.167C3235.5,3241.333,3235.5,3349.667,3198.693,4341.278C3161.886,5332.89,3088.271,7207.78,3051.464,8145.225L3014.657,9082.67" id="L_Snap_DB_Ingest_0" class=" edge-thickness-normal edge-pattern-solid edge-thickness-normal edge-pattern-solid flowchart-link" style=";" data-edge="true" data-et="edge" data-id="L_Snap_DB_Ingest_0" data-points="W3sieCI6MzIzNS41LCJ5IjozMTMzfSx7IngiOjMyMzUuNSwieSI6MzQ1OH0seyJ4IjozMDE0LjUsInkiOjkwODYuNjY3MDkxODM2NzM2fV0=" marker-end="url(#mermaid-3d3c44e3_flowchart-v2-pointEnd)"></path><path d="M2810.5,4383L2810.5,4437.167C2810.5,4491.333,2810.5,4599.667,2810.5,4707.333C2810.5,4815,2810.5,4922,2810.5,4975.5L2810.5,5029" id="L_DB_Ingest_Refresh_0" class=" edge-thickness-normal edge-pattern-solid edge-thickness-normal edge-pattern-solid flowchart-link" style=";" data-edge="true" data-et="edge" data-id="L_DB_Ingest_Refresh_0" data-points="W3sieCI6MjgxMC41LCJ5Ijo0MzgzfSx7IngiOjI4MTAuNSwieSI6NDcwOH0seyJ4IjoyODEwLjUsInkiOjUwMzN9XQ==" marker-end="url(#mermaid-3d3c44e3_flowchart-v2-pointEnd)"></path><path d="M2810.5,5633L2810.5,5687.167C2810.5,5741.333,2810.5,5849.667,2810.5,5957.333C2810.5,6065,2810.5,6172,2810.5,6225.5L2810.5,6279" id="L_Refresh_State_Ingest_0" class=" edge-thickness-normal edge-pattern-solid edge-thickness-normal edge-pattern-solid flowchart-link" style=";" data-edge="true" data-et="edge" data-id="L_Refresh_State_Ingest_0" data-points="W3sieCI6MjgxMC41LCJ5Ijo1NjMzfSx7IngiOjI4MTAuNSwieSI6NTk1OH0seyJ4IjoyODEwLjUsInkiOjYyODN9XQ==" marker-end="url(#mermaid-3d3c44e3_flowchart-v2-pointEnd)"></path><path d="M868,16358L868,16303.833C868,16249.667,868,16141.333,868,15983C868,15824.667,868,15616.333,868,15408C868,15199.667,868,14991.333,868,14783C868,14574.667,868,14366.333,868,14158C868,13949.667,868,13741.333,868,13533C868,13324.667,868,13116.333,868,12908C868,12699.667,868,12491.333,868,12283C868,12074.667,868,11866.333,868,11658C868,11449.667,868,11241.333,868,11033C868,10824.667,868,10616.333,868,10408C868,10199.667,868,9991.333,886.155,9618.415C904.31,9245.496,940.62,8707.991,958.775,8439.239L976.93,8170.487" id="L_DB_Decision_State_Decision_0" class=" edge-thickness-normal edge-pattern-solid edge-thickness-normal edge-pattern-solid flowchart-link" style=";" data-edge="true" data-et="edge" data-id="L_DB_Decision_State_Decision_0" data-points="W3sieCI6ODY4LCJ5IjoxNjM1OH0seyJ4Ijo4NjgsInkiOjE2MDMzfSx7IngiOjg2OCwieSI6MTU0MDh9LHsieCI6ODY4LCJ5IjoxNDc4M30seyJ4Ijo4NjgsInkiOjE0MTU4fSx7IngiOjg2OCwieSI6MTM1MzN9LHsieCI6ODY4LCJ5IjoxMjkwOH0seyJ4Ijo4NjgsInkiOjEyMjgzfSx7IngiOjg2OCwieSI6MTE2NTh9LHsieCI6ODY4LCJ5IjoxMTAzM30seyJ4Ijo4NjgsInkiOjEwNDA4fSx7IngiOjg2OCwieSI6OTc4M30seyJ4Ijo5NzcuMiwieSI6ODE2Ni40OTYxNzM0NjkzODl9XQ==" marker-end="url(#mermaid-3d3c44e3_flowchart-v2-pointEnd)"></path><path d="M664,11654.333L627.167,12592.444C590.333,13530.555,516.667,15406.778,479.833,16398.389C443,17390,443,17497,443,17550.5L443,17604" id="L_DB_Decision_Epoch_D_0" class=" edge-thickness-normal edge-pattern-solid edge-thickness-normal edge-pattern-solid flowchart-link" style=";" data-edge="true" data-et="edge" data-id="L_DB_Decision_Epoch_D_0" data-points="W3sieCI6NjY0LCJ5IjoxMTY1NC4zMzI5MDgxNjMyNjR9LHsieCI6NDQzLCJ5IjoxNzI4M30seyJ4Ijo0NDMsInkiOjE3NjA4fV0=" marker-end="url(#mermaid-3d3c44e3_flowchart-v2-pointEnd)"></path><path d="M1072,11654.333L1108.833,12592.444C1145.667,13530.555,1219.333,15406.778,1256.167,16398.389C1293,17390,1293,17497,1293,17550.5L1293,17604" id="L_DB_Decision_Orders_0" class=" edge-thickness-normal edge-pattern-solid edge-thickness-normal edge-pattern-solid flowchart-link" style=";" data-edge="true" data-et="edge" data-id="L_DB_Decision_Orders_0" data-points="W3sieCI6MTA3MiwieSI6MTE2NTQuMzMyOTA4MTYzMjY0fSx7IngiOjEyOTMsInkiOjE3MjgzfSx7IngiOjEyOTMsInkiOjE3NjA4fV0=" marker-end="url(#mermaid-3d3c44e3_flowchart-v2-pointEnd)"></path><path d="M2593,19483L2593,19537.167C2593,19591.333,2593,19699.667,2628.813,19807.446C2664.626,19915.225,2736.252,20022.449,2772.065,20076.062L2807.878,20129.674" id="L_Eval_RefreshEval_0" class=" edge-thickness-normal edge-pattern-solid edge-thickness-normal edge-pattern-solid flowchart-link" style=";" data-edge="true" data-et="edge" data-id="L_Eval_RefreshEval_0" data-points="W3sieCI6MjU5MywieSI6MTk0ODN9LHsieCI6MjU5MywieSI6MTk4MDh9LHsieCI6MjgxMC4xLCJ5IjoyMDEzM31d" marker-end="url(#mermaid-3d3c44e3_flowchart-v2-pointEnd)"></path><path d="M3114.9,20133L3133.75,20078.833C3152.6,20024.667,3190.3,19916.333,3209.15,19758C3228,19599.667,3228,19391.333,3228,19183C3228,18974.667,3228,18766.333,3228,18608C3228,18449.667,3228,18341.333,3228,18233C3228,18124.667,3228,18016.333,3228,17858C3228,17699.667,3228,17491.333,3228,17283C3228,17074.667,3228,16866.333,3228,16658C3228,16449.667,3228,16241.333,3228,16033C3228,15824.667,3228,15616.333,3228,15408C3228,15199.667,3228,14991.333,3228,14783C3228,14574.667,3228,14366.333,3228,14158C3228,13949.667,3228,13741.333,3228,13533C3228,13324.667,3228,13116.333,3228,12908C3228,12699.667,3228,12491.333,3228,12283C3228,12074.667,3228,11866.333,3228,11658C3228,11449.667,3228,11241.333,3228,11033C3228,10824.667,3228,10616.333,3228,10408C3228,10199.667,3228,9991.333,3228,9783C3228,9574.667,3228,9366.333,3228,9208C3228,9049.667,3228,8941.333,3228,8833C3228,8724.667,3228,8616.333,3192.187,8508.554C3156.374,8400.775,3084.748,8293.551,3048.935,8239.938L3013.122,8186.326" id="L_RefreshEval_Sync_0" class=" edge-thickness-normal edge-pattern-solid edge-thickness-normal edge-pattern-solid flowchart-link" style=";" data-edge="true" data-et="edge" data-id="L_RefreshEval_Sync_0" data-points="W3sieCI6MzExNC45LCJ5IjoyMDEzM30seyJ4IjozMjI4LCJ5IjoxOTgwOH0seyJ4IjozMjI4LCJ5IjoxOTE4M30seyJ4IjozMjI4LCJ5IjoxODU1OH0seyJ4IjozMjI4LCJ5IjoxODIzM30seyJ4IjozMjI4LCJ5IjoxNzkwOH0seyJ4IjozMjI4LCJ5IjoxNzI4M30seyJ4IjozMjI4LCJ5IjoxNjY1OH0seyJ4IjozMjI4LCJ5IjoxNjAzM30seyJ4IjozMjI4LCJ5IjoxNTQwOH0seyJ4IjozMjI4LCJ5IjoxNDc4M30seyJ4IjozMjI4LCJ5IjoxNDE1OH0seyJ4IjozMjI4LCJ5IjoxMzUzM30seyJ4IjozMjI4LCJ5IjoxMjkwOH0seyJ4IjozMjI4LCJ5IjoxMjI4M30seyJ4IjozMjI4LCJ5IjoxMTY1OH0seyJ4IjozMjI4LCJ5IjoxMTAzM30seyJ4IjozMjI4LCJ5IjoxMDQwOH0seyJ4IjozMjI4LCJ5Ijo5NzgzfSx7IngiOjMyMjgsInkiOjkxNTh9LHsieCI6MzIyOCwieSI6ODgzM30seyJ4IjozMjI4LCJ5Ijo4NTA4fSx7IngiOjMwMTAuOSwieSI6ODE4M31d" marker-end="url(#mermaid-3d3c44e3_flowchart-v2-pointEnd)"></path><path d="M2606.5,8183L2569.667,8237.167C2532.833,8291.333,2459.167,8399.667,2422.333,8508C2385.5,8616.333,2385.5,8724.667,2234.897,8816.268C2084.294,8907.87,1783.088,8982.739,1632.485,9020.174L1481.882,9057.609" id="L_Sync_State_Decision_0" class=" edge-thickness-normal edge-pattern-solid edge-thickness-normal edge-pattern-solid flowchart-link" style=";" data-edge="true" data-et="edge" data-id="L_Sync_State_Decision_0" data-points="W3sieCI6MjYwNi41LCJ5Ijo4MTgzfSx7IngiOjIzODUuNSwieSI6ODUwOH0seyJ4IjoyMzg1LjUsInkiOjg4MzN9LHsieCI6MTQ3OCwieSI6OTA1OC41NzM2MTM3NjY3M31d" marker-end="url(#mermaid-3d3c44e3_flowchart-v2-pointEnd)"></path><path d="M1285.6,3965.333L1323.083,4934.944C1360.567,5904.555,1435.533,7843.778,1552.889,8869.956C1670.245,9896.134,1829.99,10009.268,1909.863,10065.835L1989.736,10122.402" id="L_State_Decision_Readiness_0" class=" edge-thickness-normal edge-pattern-solid edge-thickness-normal edge-pattern-solid flowchart-link" style=";" data-edge="true" data-et="edge" data-id="L_State_Decision_Readiness_0" data-points="W3sieCI6MTI4NS42LCJ5IjozOTY1LjMzMjkwODE2MzI2OX0seyJ4IjoxNTEwLjUsInkiOjk3ODN9LHsieCI6MTk5MywieSI6MTAxMjQuNzEzODgxMDE5ODN9XQ==" marker-end="url(#mermaid-3d3c44e3_flowchart-v2-pointEnd)"></path><path d="M2393,10708L2393,10762.167C2393,10816.333,2393,10924.667,2393,11032.333C2393,11140,2393,11247,2393,11300.5L2393,11354" id="L_Readiness_Pipeline_0" class=" edge-thickness-normal edge-pattern-solid edge-thickness-normal edge-pattern-solid flowchart-link" style=";" data-edge="true" data-et="edge" data-id="L_Readiness_Pipeline_0" data-points="W3sieCI6MjM5MywieSI6MTA3MDh9LHsieCI6MjM5MywieSI6MTEwMzN9LHsieCI6MjM5MywieSI6MTEzNTh9XQ==" marker-end="url(#mermaid-3d3c44e3_flowchart-v2-pointEnd)"></path><path d="M2393,11958L2393,12012.167C2393,12066.333,2393,12174.667,2393,12282.333C2393,12390,2393,12497,2393,12550.5L2393,12604" id="L_Pipeline_Gate_0" class=" edge-thickness-normal edge-pattern-solid edge-thickness-normal edge-pattern-solid flowchart-link" style=";" data-edge="true" data-et="edge" data-id="L_Pipeline_Gate_0" data-points="W3sieCI6MjM5MywieSI6MTE5NTh9LHsieCI6MjM5MywieSI6MTIyODN9LHsieCI6MjM5MywieSI6MTI2MDh9XQ==" marker-end="url(#mermaid-3d3c44e3_flowchart-v2-pointEnd)"></path><path d="M2393,13208L2393,13262.167C2393,13316.333,2393,13424.667,2393,13532.333C2393,13640,2393,13747,2393,13800.5L2393,13854" id="L_Gate_Submit_0" class=" edge-thickness-normal edge-pattern-solid edge-thickness-normal edge-pattern-solid flowchart-link" style=";" data-edge="true" data-et="edge" data-id="L_Gate_Submit_0" data-points="W3sieCI6MjM5MywieSI6MTMyMDh9LHsieCI6MjM5MywieSI6MTM1MzN9LHsieCI6MjM5MywieSI6MTM4NTh9XQ==" marker-end="url(#mermaid-3d3c44e3_flowchart-v2-pointEnd)"></path><path d="M2393,14458L2393,14512.167C2393,14566.333,2393,14674.667,2393,14782.333C2393,14890,2393,14997,2393,15050.5L2393,15104" id="L_Submit_AuthWS_0" class=" edge-thickness-normal edge-pattern-solid edge-thickness-normal edge-pattern-solid flowchart-link" style=";" data-edge="true" data-et="edge" data-id="L_Submit_AuthWS_0" data-points="W3sieCI6MjM5MywieSI6MTQ0NTh9LHsieCI6MjM5MywieSI6MTQ3ODN9LHsieCI6MjM5MywieSI6MTUxMDh9XQ==" marker-end="url(#mermaid-3d3c44e3_flowchart-v2-pointEnd)"></path><path d="M2393,15708L2393,15762.167C2393,15816.333,2393,15924.667,2206.117,16055.425C2019.234,16186.183,1645.467,16339.366,1458.584,16415.957L1271.701,16492.549" id="L_AuthWS_DB_Decision_0" class=" edge-thickness-normal edge-pattern-solid edge-thickness-normal edge-pattern-solid flowchart-link" style=";" data-edge="true" data-et="edge" data-id="L_AuthWS_DB_Decision_0" data-points="W3sieCI6MjM5MywieSI6MTU3MDh9LHsieCI6MjM5MywieSI6MTYwMzN9LHsieCI6MTI2OCwieSI6MTY0OTQuMDY1NTczNzcwNDl9XQ==" marker-end="url(#mermaid-3d3c44e3_flowchart-v2-pointEnd)"></path><path d="M2810.5,6883L2810.5,6887.167C2810.5,6891.333,2810.5,6899.667,2810.5,6958C2810.5,7016.333,2810.5,7124.667,2810.5,7233C2810.5,7341.333,2810.5,7449.667,2810.5,7507.333C2810.5,7565,2810.5,7572,2810.5,7575.5L2810.5,7579" id="L_State_Ingest_Sync_0" class=" edge-thickness-normal edge-pattern-solid edge-thickness-normal edge-pattern-solid flowchart-link" style=";" data-edge="true" data-et="edge" data-id="L_State_Ingest_Sync_0" data-points="W3sieCI6MjgxMC41LCJ5Ijo2ODgzfSx7IngiOjI4MTAuNSwieSI6NjkwOH0seyJ4IjoyODEwLjUsInkiOjcyMzN9LHsieCI6MjgxMC41LCJ5Ijo3NTU4fSx7IngiOjI4MTAuNSwieSI6NzU4M31d" marker-end="url(#mermaid-3d3c44e3_flowchart-v2-pointEnd)"></path><path d="M443,18208L443,18212.167C443,18216.333,443,18224.667,801.333,18283C1159.667,18341.333,1876.333,18449.667,2234.667,18557.333C2593,18665,2593,18772,2593,18825.5L2593,18879" id="L_Epoch_D_Eval_0" class=" edge-thickness-normal edge-pattern-solid edge-thickness-normal edge-pattern-solid flowchart-link" style=";" data-edge="true" data-et="edge" data-id="L_Epoch_D_Eval_0" data-points="W3sieCI6NDQzLCJ5IjoxODIwOH0seyJ4Ijo0NDMsInkiOjE4MjMzfSx7IngiOjI1OTMsInkiOjE4NTU4fSx7IngiOjI1OTMsInkiOjE4ODgzfV0=" marker-end="url(#mermaid-3d3c44e3_flowchart-v2-pointEnd)"></path></g><g class="edgeLabels"><g class="edgeLabel"><g class="label" data-id="L_WS_Writer_0" transform="translate(-400, -300)"><text y="-10.1" text-anchor="middle"><tspan class="text-outer-tspan row" x="0" y="-0.1em" dy="1.1em" text-anchor="middle"></tspan></text></g></g><g><rect class="background" style="stroke: none"></rect></g><g class="edgeLabel"><g class="label" data-id="L_Writer_DB_Ingest_0" transform="translate(-400, -300)"><text y="-10.1" text-anchor="middle"><tspan class="text-outer-tspan row" x="0" y="-0.1em" dy="1.1em" text-anchor="middle"></tspan></text></g></g><g><rect class="background" style="stroke: none"></rect></g><g class="edgeLabel"><g class="label" data-id="L_UM_Epoch_0" transform="translate(-400, -300)"><text y="-10.1" text-anchor="middle"><tspan class="text-outer-tspan row" x="0" y="-0.1em" dy="1.1em" text-anchor="middle"></tspan></text></g></g><g><rect class="background" style="stroke: none"></rect></g><g class="edgeLabel"><g class="label" data-id="L_Epoch_Snap_0" transform="translate(-400, -300)"><text y="-10.1" text-anchor="middle"><tspan class="text-outer-tspan row" x="0" y="-0.1em" dy="1.1em" text-anchor="middle"></tspan></text></g></g><g><rect class="background" style="stroke: none"></rect></g><g class="edgeLabel"><g class="label" data-id="L_Snap_DB_Ingest_0" transform="translate(-400, -300)"><text y="-10.1" text-anchor="middle"><tspan class="text-outer-tspan row" x="0" y="-0.1em" dy="1.1em" text-anchor="middle"></tspan></text></g></g><g><rect class="background" style="stroke: none"></rect></g><g class="edgeLabel"><g class="label" data-id="L_DB_Ingest_Refresh_0" transform="translate(-400, -300)"><text y="-10.1" text-anchor="middle"><tspan class="text-outer-tspan row" x="0" y="-0.1em" dy="1.1em" text-anchor="middle"></tspan></text></g></g><g><rect class="background" style="stroke: none"></rect></g><g class="edgeLabel"><g class="label" data-id="L_Refresh_State_Ingest_0" transform="translate(-400, -300)"><text y="-10.1" text-anchor="middle"><tspan class="text-outer-tspan row" x="0" y="-0.1em" dy="1.1em" text-anchor="middle"></tspan></text></g></g><g><rect class="background" style="stroke: none"></rect></g><g class="edgeLabel"><g class="label" data-id="L_DB_Decision_State_Decision_0" transform="translate(-400, -300)"><text y="-10.1" text-anchor="middle"><tspan class="text-outer-tspan row" x="0" y="-0.1em" dy="1.1em" text-anchor="middle"></tspan></text></g></g><g><rect class="background" style="stroke: none"></rect></g><g class="edgeLabel"><g class="label" data-id="L_DB_Decision_Epoch_D_0" transform="translate(-400, -300)"><text y="-10.1" text-anchor="middle"><tspan class="text-outer-tspan row" x="0" y="-0.1em" dy="1.1em" text-anchor="middle"></tspan></text></g></g><g><rect class="background" style="stroke: none"></rect></g><g class="edgeLabel"><g class="label" data-id="L_DB_Decision_Orders_0" transform="translate(-400, -300)"><text y="-10.1" text-anchor="middle"><tspan class="text-outer-tspan row" x="0" y="-0.1em" dy="1.1em" text-anchor="middle"></tspan></text></g></g><g><rect class="background" style="stroke: none"></rect></g><g class="edgeLabel"><g class="label" data-id="L_Eval_RefreshEval_0" transform="translate(-400, -300)"><text y="-10.1" text-anchor="middle"><tspan class="text-outer-tspan row" x="0" y="-0.1em" dy="1.1em" text-anchor="middle"></tspan></text></g></g><g><rect class="background" style="stroke: none"></rect></g><g class="edgeLabel"><g class="label" data-id="L_RefreshEval_Sync_0" transform="translate(-400, -300)"><text y="-10.1" text-anchor="middle"><tspan class="text-outer-tspan row" x="0" y="-0.1em" dy="1.1em" text-anchor="middle"></tspan></text></g></g><g><rect class="background" style="stroke: none"></rect></g><g class="edgeLabel"><g class="label" data-id="L_Sync_State_Decision_0" transform="translate(-400, -300)"><text y="-10.1" text-anchor="middle"><tspan class="text-outer-tspan row" x="0" y="-0.1em" dy="1.1em" text-anchor="middle"></tspan></text></g></g><g><rect class="background" style="stroke: none"></rect></g><g class="edgeLabel"><g class="label" data-id="L_State_Decision_Readiness_0" transform="translate(-400, -300)"><text y="-10.1" text-anchor="middle"><tspan class="text-outer-tspan row" x="0" y="-0.1em" dy="1.1em" text-anchor="middle"></tspan></text></g></g><g><rect class="background" style="stroke: none"></rect></g><g class="edgeLabel"><g class="label" data-id="L_Readiness_Pipeline_0" transform="translate(-400, -300)"><text y="-10.1" text-anchor="middle"><tspan class="text-outer-tspan row" x="0" y="-0.1em" dy="1.1em" text-anchor="middle"></tspan></text></g></g><g><rect class="background" style="stroke: none"></rect></g><g class="edgeLabel"><g class="label" data-id="L_Pipeline_Gate_0" transform="translate(-400, -300)"><text y="-10.1" text-anchor="middle"><tspan class="text-outer-tspan row" x="0" y="-0.1em" dy="1.1em" text-anchor="middle"></tspan></text></g></g><g><rect class="background" style="stroke: none"></rect></g><g class="edgeLabel"><g class="label" data-id="L_Gate_Submit_0" transform="translate(-400, -300)"><text y="-10.1" text-anchor="middle"><tspan class="text-outer-tspan row" x="0" y="-0.1em" dy="1.1em" text-anchor="middle"></tspan></text></g></g><g><rect class="background" style="stroke: none"></rect></g><g class="edgeLabel"><g class="label" data-id="L_Submit_AuthWS_0" transform="translate(-400, -300)"><text y="-10.1" text-anchor="middle"><tspan class="text-outer-tspan row" x="0" y="-0.1em" dy="1.1em" text-anchor="middle"></tspan></text></g></g><g><rect class="background" style="stroke: none"></rect></g><g class="edgeLabel"><g class="label" data-id="L_AuthWS_DB_Decision_0" transform="translate(-400, -300)"><text y="-10.1" text-anchor="middle"><tspan class="text-outer-tspan row" x="0" y="-0.1em" dy="1.1em" text-anchor="middle"></tspan></text></g></g><g><rect class="background" style="stroke: none"></rect></g><g class="edgeLabel"><g class="label" data-id="L_State_Ingest_Sync_0" transform="translate(-400, -300)"><text y="-10.1" text-anchor="middle"><tspan class="text-outer-tspan row" x="0" y="-0.1em" dy="1.1em" text-anchor="middle"></tspan></text></g></g><g><rect class="background" style="stroke: none"></rect></g><g class="edgeLabel"><g class="label" data-id="L_Epoch_D_Eval_0" transform="translate(-400, -300)"><text y="-10.1" text-anchor="middle"><tspan class="text-outer-tspan row" x="0" y="-0.1em" dy="1.1em" text-anchor="middle"></tspan></text></g></g><g><rect class="background" style="stroke: none"></rect></g></g><g class="nodes"><g class="node default  " id="flowchart-WS-0" transform="translate(2385.5, 1583)"><rect class="basic label-container" style="" x="-30" y="-15" width="60" height="30"></rect><g class="label" style="" transform="translate(0, 0)"><rect></rect><text x="0" y="0" text-anchor="middle" dominant-baseline="middle" style="font-size:58px;fill:#ccc;">Public WS: ticker, trade, L2, L3</text></g></g><g class="node default  " id="flowchart-Writer-1" transform="translate(2385.5, 2833)"><rect class="basic label-container" style="" x="-30" y="-15" width="60" height="30"></rect><g class="label" style="" transform="translate(0, 0)"><rect></rect><text x="0" y="0" text-anchor="middle" dominant-baseline="middle" style="font-size:58px;fill:#ccc;">Async writer</text></g></g><g class="node default  " id="flowchart-UM-2" transform="translate(3235.5, 333)"><rect class="basic label-container" style="" x="-30" y="-15" width="60" height="30"></rect><g class="label" style="" transform="translate(0, 0)"><rect></rect><text x="0" y="0" text-anchor="middle" dominant-baseline="middle" style="font-size:58px;fill:#ccc;">UniverseManager</text></g></g><g class="node default  " id="flowchart-Epoch-3" transform="translate(3235.5, 1583)"><rect class="basic label-container" style="" x="-30" y="-15" width="60" height="30"></rect><g class="label" style="" transform="translate(0, 0)"><rect></rect><text x="0" y="0" text-anchor="middle" dominant-baseline="middle" style="font-size:58px;fill:#ccc;">ingest_epochs / lineage</text></g></g><g class="node default  " id="flowchart-Snap-4" transform="translate(3235.5, 2833)"><rect class="basic label-container" style="" x="-30" y="-15" width="60" height="30"></rect><g class="label" style="" transform="translate(0, 0)"><rect></rect><text x="0" y="0" text-anchor="middle" dominant-baseline="middle" style="font-size:58px;fill:#ccc;">execution_universe_snapshots</text></g></g><g class="node default  " id="flowchart-Refresh-5" transform="translate(2810.5, 5333)"><rect class="basic label-container" style="" x="-30" y="-15" width="60" height="30"></rect><g class="label" style="" transform="translate(0, 0)"><rect></rect><text x="0" y="0" text-anchor="middle" dominant-baseline="middle" style="font-size:58px;fill:#ccc;">refresh_run_symbol_state</text></g></g><g class="node default  " id="flowchart-DB_Ingest-9" transform="translate(2810.5, 4083)"><path d="M0,2.678571428571429 a7.5,2.678571428571429 0,0,0 15,0 a7.5,2.678571428571429 0,0,0 -15,0 l0,17.67857142857143 a7.5,2.678571428571429 0,0,0 15,0 l0,-17.67857142857143" class="basic label-container" style="" label-offset-y="2.678571428571429" transform="translate(-7.5, -11.517857142857144)"></path><g class="label" style="" transform="translate(0, 10)"><rect></rect><text x="0" y="0" text-anchor="middle" dominant-baseline="middle" style="font-size:58px;fill:#ccc;">DB Ingest</text></g></g><g class="node default  " id="flowchart-State_Ingest-19" transform="translate(2810.5, 6583)"><path d="M0,2.678571428571429 a7.5,2.678571428571429 0,0,0 15,0 a7.5,2.678571428571429 0,0,0 -15,0 l0,17.67857142857143 a7.5,2.678571428571429 0,0,0 15,0 l0,-17.67857142857143" class="basic label-container" style="" label-offset-y="2.678571428571429" transform="translate(-7.5, -11.517857142857144)"></path><g class="label" style="" transform="translate(0, 10)"><rect></rect><text x="0" y="0" text-anchor="middle" dominant-baseline="middle" style="font-size:58px;fill:#ccc;">run_symbol_state</text></g></g><g class="node default  " id="flowchart-Sync-20" transform="translate(2810.5, 7883)"><rect class="basic label-container" style="" x="-30" y="-15" width="60" height="30"></rect><g class="label" style="" transform="translate(0, 0)"><rect></rect><text x="0" y="0" text-anchor="middle" dominant-baseline="middle" style="font-size:58px;fill:#ccc;">sync_run_symbol_state_to_decision</text></g></g><g class="node default  " id="flowchart-DB_Decision-21" transform="translate(868, 16658)"><path d="M0,2.678571428571429 a7.5,2.678571428571429 0,0,0 15,0 a7.5,2.678571428571429 0,0,0 -15,0 l0,17.67857142857143 a7.5,2.678571428571429 0,0,0 15,0 l0,-17.67857142857143" class="basic label-container" style="" label-offset-y="2.678571428571429" transform="translate(-7.5, -11.517857142857144)"></path><g class="label" style="" transform="translate(0, 10)"><rect></rect><text x="0" y="0" text-anchor="middle" dominant-baseline="middle" style="font-size:58px;fill:#ccc;">DB Decision</text></g></g><g class="node default  " id="flowchart-State_Decision-22" transform="translate(1078, 9158)"><path d="M0,2.678571428571429 a7.5,2.678571428571429 0,0,0 15,0 a7.5,2.678571428571429 0,0,0 -15,0 l0,17.67857142857143 a7.5,2.678571428571429 0,0,0 15,0 l0,-17.67857142857143" class="basic label-container" style="" label-offset-y="2.678571428571429" transform="translate(-7.5, -11.517857142857144)"></path><g class="label" style="" transform="translate(0, 10)"><rect></rect><text x="0" y="0" text-anchor="middle" dominant-baseline="middle" style="font-size:58px;fill:#ccc;">run_symbol_state</text></g></g><g class="node default  " id="flowchart-Epoch_D-23" transform="translate(443, 17908)"><rect class="basic label-container" style="" x="-30" y="-15" width="60" height="30"></rect><g class="label" style="" transform="translate(0, 0)"><rect></rect><text x="0" y="0" text-anchor="middle" dominant-baseline="middle" style="font-size:58px;fill:#ccc;">ingest_epochs / snapshots</text></g></g><g class="node default  " id="flowchart-Orders-24" transform="translate(1293, 17908)"><rect class="basic label-container" style="" x="-30" y="-15" width="60" height="30"></rect><g class="label" style="" transform="translate(0, 0)"><rect></rect><text x="0" y="0" text-anchor="middle" dominant-baseline="middle" style="font-size:58px;fill:#ccc;">execution_orders / fills</text></g></g><g class="node default  " id="flowchart-Eval-31" transform="translate(2593, 19183)"><rect class="basic label-container" style="" x="-30" y="-15" width="60" height="30"></rect><g class="label" style="" transform="translate(0, 0)"><rect></rect><text x="0" y="0" text-anchor="middle" dominant-baseline="middle" style="font-size:58px;fill:#ccc;">Evaluation loop</text></g></g><g class="node default  " id="flowchart-RefreshEval-32" transform="translate(3010.5, 20433)"><rect class="basic label-container" style="" x="-30" y="-15" width="60" height="30"></rect><g class="label" style="" transform="translate(0, 0)"><rect></rect><text x="0" y="0" text-anchor="middle" dominant-baseline="middle" style="font-size:58px;fill:#ccc;">refresh op ingest</text></g></g><g class="node default  " id="flowchart-Readiness-33" transform="translate(2393, 10408)"><rect class="basic label-container" style="" x="-30" y="-15" width="60" height="30"></rect><g class="label" style="" transform="translate(0, 0)"><rect></rect><text x="0" y="0" text-anchor="middle" dominant-baseline="middle" style="font-size:58px;fill:#ccc;">Readiness from state</text></g></g><g class="node default  " id="flowchart-Pipeline-34" transform="translate(2393, 11658)"><rect class="basic label-container" style="" x="-30" y="-15" width="60" height="30"></rect><g class="label" style="" transform="translate(0, 0)"><rect></rect><text x="0" y="0" text-anchor="middle" dominant-baseline="middle" style="font-size:58px;fill:#ccc;">Pipeline from state</text></g></g><g class="node default  " id="flowchart-Gate-35" transform="translate(2393, 12908)"><rect class="basic label-container" style="" x="-30" y="-15" width="60" height="30"></rect><g class="label" style="" transform="translate(0, 0)"><rect></rect><text x="0" y="0" text-anchor="middle" dominant-baseline="middle" style="font-size:58px;fill:#ccc;">Generation gate + route freshness</text></g></g><g class="node default  " id="flowchart-Submit-36" transform="translate(2393, 14158)"><rect class="basic label-container" style="" x="-30" y="-15" width="60" height="30"></rect><g class="label" style="" transform="translate(0, 0)"><rect></rect><text x="0" y="0" text-anchor="middle" dominant-baseline="middle" style="font-size:58px;fill:#ccc;">DB-first submit + OrderTracker</text></g></g><g class="node default  " id="flowchart-AuthWS-37" transform="translate(2393, 15408)"><rect class="basic label-container" style="" x="-30" y="-15" width="60" height="30"></rect><g class="label" style="" transform="translate(0, 0)"><rect></rect><text x="0" y="0" text-anchor="middle" dominant-baseline="middle" style="font-size:58px;fill:#ccc;">Private WS: orders, fills</text></g></g></g></g></g></svg>