<?xml version="1.0" encoding="UTF-8"?>
<svg id="Laag_2" data-name="Laag 2" xmlns="http://www.w3.org/2000/svg" xmlns:xlink="http://www.w3.org/1999/xlink" viewBox="0 0 743.38 130.53">
  <defs>
    <style>
      .cls-1 {
        filter: url(#drop-shadow-1);
      }

      .cls-2 {
        fill: url(#linear-gradient);
      }

      .cls-3 {
        fill: #a6b4b7;
      }

      .cls-4 {
        fill: #57f8f8;
      }

      .cls-5 {
        fill: #264f55;
      }

      .cls-6 {
        fill: #59f8fc;
      }
    </style>
    <filter id="drop-shadow-1" x="677.85" y="17.57" width="88" height="87" filterUnits="userSpaceOnUse">
      <feOffset dx="1" dy="2"/>
      <feGaussianBlur result="blur" stdDeviation="7"/>
      <feFlood flood-color="#7ef2f2" flood-opacity=".5"/>
      <feComposite in2="blur" operator="in"/>
      <feComposite in="SourceGraphic"/>
    </filter>
    <linearGradient id="linear-gradient" x1="702.01" y1="60.55" x2="714.74" y2="82.58" gradientUnits="userSpaceOnUse">
      <stop offset="0" stop-color="#55f6f5"/>
      <stop offset="1" stop-color="#23626b"/>
    </linearGradient>
  </defs>
  <g id="Layer_1" data-name="Layer 1">
    <g>
      <g>
        <path class="cls-3" d="M205.32,49.73c-1.6-4.21-3.78-7.7-6.43-10.5-2.69-2.76-5.78-4.83-9.26-6.18s-7.01-2-10.61-2c-4.14,0-7.77.84-10.9,2.54-3.16,1.71-5.74,3.89-7.74,6.54h-.25l-.69-7.45h-14.2v97.83h16.17v-27.5c0-1.96,0-3.74-.04-5.41-.07-1.67-.11-2.94-.15-3.85h.25c1.93,1.89,4.32,3.52,7.19,4.8,2.91,1.31,6.14,1.96,9.66,1.96s7.19-.73,10.61-2.14c3.45-1.38,6.58-3.56,9.41-6.5,2.8-2.94,5.09-6.65,6.79-11.12,1.74-4.47,2.62-9.81,2.62-15.95,0-5.81-.8-10.83-2.43-15.08ZM189.99,74.47c-.65,2.72-1.67,5.05-2.94,7.01-1.31,1.96-2.94,3.45-4.9,4.54-1.93,1.05-4.18,1.6-6.68,1.6-1.53,0-3.02-.22-4.47-.62-1.42-.4-2.72-.94-3.92-1.56-1.16-.65-2.25-1.34-3.2-2.14-.94-.76-1.78-1.53-2.47-2.29v-29.5c1.96-2.25,4.21-4.07,6.76-5.41,2.54-1.34,5.23-2.03,8.06-2.07,2.22,0,4.25.44,6.07,1.34s3.38,2.25,4.69,4.03c1.31,1.78,2.29,4,2.98,6.68.73,2.69,1.09,5.81,1.09,9.34,0,3.34-.36,6.36-1.05,9.05Z"/>
        <rect class="cls-3" x="219.67" y="32.69" width="16.2" height="66.12"/>
        <rect class="cls-3" x="219.27" y="2.28" width="17" height="17.55" rx="8.5" ry="8.5"/>
        <path class="cls-3" d="M286.36,86.5c-1.82.29-3.67.44-5.56.44-4.03,0-6.76-1.05-8.1-3.12-.76-1.24-1.16-3.12-1.16-5.67v-32.15h19.11v-13.3h-19.11V7.52l-16.17,6.68v18.49h-12.35v13.3h12.35v34.26c0,4.14.51,7.41,1.56,9.81,1.45,3.38,3.96,5.96,7.48,7.74,3.52,1.82,8.06,2.72,13.59,2.72,2.22,0,4.54-.18,7.08-.47,2.51-.33,4.69-.76,6.5-1.31v-13.37c-1.63.44-3.38.84-5.23,1.13Z"/>
        <path class="cls-3" d="M355.32,90.42c-.07-3.16-.11-6.9-.11-11.26v-24.92c0-3.31-.62-6.39-1.82-9.19-1.2-2.83-3.02-5.27-5.45-7.34-2.43-2.07-5.49-3.71-9.08-4.87-3.63-1.2-7.85-1.78-12.68-1.78-4.07.04-7.99.44-11.73,1.24-3.71.76-7.23,1.85-10.57,3.34l3.2,11.44c2.62-.87,5.12-1.6,7.45-2.11,3.27-.73,6.58-1.09,9.84-1.09,2.69,0,4.94.33,6.83.98,1.85.65,3.38,1.56,4.5,2.65,1.16,1.13,2.03,2.4,2.54,3.81.51,1.45.8,2.94.8,4.47v2.69c-1.82-.51-3.96-.94-6.36-1.31-2.4-.36-5.05-.55-7.92-.55-3.92,0-7.48.51-10.72,1.53-3.23,1.02-5.99,2.51-8.32,4.47-2.33,1.96-4.14,4.36-5.41,7.19-1.31,2.8-1.96,5.99-1.96,9.52,0,3.23.55,6.18,1.67,8.79,1.13,2.62,2.65,4.83,4.61,6.68,1.96,1.85,4.29,3.23,7.01,4.21,2.76.98,5.67,1.49,8.83,1.49,2.32,0,4.47-.29,6.47-.84,2-.54,3.81-1.27,5.45-2.14s3.12-1.82,4.4-2.83c1.27-.98,2.36-1.96,3.27-2.94h.25l.69,7.05h14.6c-.11-2.47-.18-5.27-.29-8.39ZM339.05,80.72c-.69.76-1.53,1.56-2.51,2.4-.98.8-2.07,1.56-3.31,2.22-1.24.65-2.58,1.2-4.03,1.63-1.45.44-3.02.65-4.65.65-1.31,0-2.54-.18-3.74-.55-1.16-.36-2.22-.91-3.09-1.63-.91-.73-1.6-1.67-2.14-2.76-.51-1.13-.76-2.43-.76-3.92,0-3.23,1.13-5.63,3.45-7.23,2.29-1.56,5.41-2.32,9.37-2.32,2.03,0,4.07.15,6.07.44,2,.29,3.78.62,5.34.98v10.1Z"/>
        <path class="cls-3" d="M132.21,90.42c-.07-3.16-.11-6.9-.11-11.26v-24.92c0-3.31-.62-6.39-1.82-9.19-1.2-2.83-3.02-5.27-5.45-7.34-2.43-2.07-5.49-3.71-9.08-4.87-3.63-1.2-7.85-1.78-12.68-1.78-4.07.04-7.99.44-11.73,1.24-3.71.76-7.23,1.85-10.57,3.34l3.2,11.44c2.62-.87,5.12-1.6,7.45-2.11,3.27-.73,6.58-1.09,9.84-1.09,2.69,0,4.94.33,6.83.98,1.85.65,3.38,1.56,4.5,2.65,1.16,1.13,2.03,2.4,2.54,3.81.51,1.45.8,2.94.8,4.47v2.69c-1.82-.51-3.96-.94-6.36-1.31-2.4-.36-5.05-.55-7.92-.55-3.92,0-7.48.51-10.72,1.53-3.23,1.02-5.99,2.51-8.32,4.47-2.33,1.96-4.14,4.36-5.41,7.19-1.31,2.8-1.96,5.99-1.96,9.52,0,3.23.55,6.18,1.67,8.79,1.13,2.62,2.65,4.83,4.61,6.68,1.96,1.85,4.29,3.23,7.01,4.21,2.76.98,5.67,1.49,8.83,1.49,2.32,0,4.47-.29,6.47-.84,2-.54,3.81-1.27,5.45-2.14s3.12-1.82,4.4-2.83c1.27-.98,2.36-1.96,3.27-2.94h.25l.69,7.05h14.6c-.11-2.47-.18-5.27-.29-8.39ZM115.94,80.72c-.69.76-1.53,1.56-2.51,2.4-.98.8-2.07,1.56-3.31,2.22-1.24.65-2.58,1.2-4.03,1.63-1.45.44-3.02.65-4.65.65-1.31,0-2.54-.18-3.74-.55-1.16-.36-2.22-.91-3.09-1.63-.91-.73-1.6-1.67-2.14-2.76-.51-1.13-.76-2.43-.76-3.92,0-3.23,1.13-5.63,3.45-7.23,2.29-1.56,5.41-2.32,9.37-2.32,2.03,0,4.07.15,6.07.44,2,.29,3.78.62,5.34.98v10.1Z"/>
        <path class="cls-3" d="M424.35,90.42c-.07-3.16-.11-6.9-.11-11.26v-24.92c0-3.31-.62-6.39-1.82-9.19-1.2-2.83-3.02-5.27-5.45-7.34-2.43-2.07-5.49-3.71-9.08-4.87-3.63-1.2-7.85-1.78-12.68-1.78-4.07.04-7.99.44-11.73,1.24-3.71.76-7.23,1.85-10.57,3.34l3.2,11.44c2.62-.87,5.12-1.6,7.45-2.11,3.27-.73,6.58-1.09,9.84-1.09,2.69,0,4.94.33,6.83.98,1.85.65,3.38,1.56,4.5,2.65,1.16,1.13,2.03,2.4,2.54,3.81.51,1.45.8,2.94.8,4.47v2.69c-1.82-.51-3.96-.94-6.36-1.31-2.4-.36-5.05-.55-7.92-.55-3.92,0-7.48.51-10.72,1.53-3.23,1.02-5.99,2.51-8.32,4.47-2.33,1.96-4.14,4.36-5.41,7.19-1.31,2.8-1.96,5.99-1.96,9.52,0,3.23.55,6.18,1.67,8.79,1.13,2.62,2.65,4.83,4.61,6.68,1.96,1.85,4.29,3.23,7.01,4.21,2.76.98,5.67,1.49,8.83,1.49,2.32,0,4.47-.29,6.47-.84,2-.54,3.81-1.27,5.45-2.14s3.12-1.82,4.4-2.83c1.27-.98,2.36-1.96,3.27-2.94h.25l.69,7.05h14.6c-.11-2.47-.18-5.27-.29-8.39ZM408.08,80.72c-.69.76-1.53,1.56-2.51,2.4-.98.8-2.07,1.56-3.31,2.22-1.24.65-2.58,1.2-4.03,1.63-1.45.44-3.02.65-4.65.65-1.31,0-2.54-.18-3.74-.55-1.16-.36-2.22-.91-3.09-1.63-.91-.73-1.6-1.67-2.14-2.76-.51-1.13-.76-2.43-.76-3.92,0-3.23,1.13-5.63,3.45-7.23,2.29-1.56,5.41-2.32,9.37-2.32,2.03,0,4.07.15,6.07.44,2,.29,3.78.62,5.34.98v10.1Z"/>
        <path class="cls-3" d="M440.36,0v98.81h16.17V0h-16.17Z"/>
        <path class="cls-3" d="M543.06,64.08c-.73-2.11-1.78-3.96-3.12-5.63s-2.94-3.09-4.83-4.32c-1.89-1.2-4-2.18-6.25-2.94v-.29c4.11-2.18,7.01-4.9,8.79-8.21,1.78-3.31,2.65-6.94,2.65-10.9,0-2.22-.33-4.43-1.05-6.65-.69-2.18-1.78-4.29-3.27-6.28-1.49-1.96-3.34-3.74-5.63-5.38-2.25-1.6-4.94-2.91-8.03-3.92-4.14-1.34-9.63-2.03-16.38-2.03h-31.75v43.08l16.75-15.8v-13.3h13.7c2.4,0,4.43.07,6.07.22,1.63.18,3.09.44,4.32.8,2.94.91,5.05,2.33,6.25,4.18,1.24,1.89,1.85,4.07,1.85,6.47s-.54,4.4-1.6,6.25c-1.05,1.85-2.87,3.27-5.34,4.32-2.25.91-5.63,1.38-10.17,1.38h-12.31l-19.51,19v34.69h26.56c2.51,0,4.76-.04,6.76-.11,2-.07,3.81-.18,5.45-.33,1.63-.18,3.12-.36,4.47-.58,1.34-.25,2.58-.51,3.74-.76,4.5-1.2,8.21-2.76,11.19-4.8,2.94-2,5.3-4.18,7.08-6.58,1.78-2.4,3.02-4.83,3.71-7.41.73-2.54,1.05-4.9,1.05-7.16,0-2.58-.36-4.94-1.13-7.01ZM526.32,75.38c-.4,1.27-1.09,2.47-2.03,3.52-.94,1.09-2.22,2.03-3.74,2.87-1.56.84-3.49,1.53-5.81,2.03-1.49.36-3.31.62-5.38.76-2.11.18-4.61.25-7.52.25h-10.9v-25.72h15.8c2.8,0,5.05.07,6.83.25s3.34.47,4.65.91c3.02.94,5.19,2.36,6.61,4.29,1.42,1.93,2.11,4.14,2.11,6.68,0,1.45-.18,2.83-.62,4.14Z"/>
        <path class="cls-3" d="M617.16,51.59c-1.53-4.29-3.71-7.92-6.58-10.97-2.87-3.05-6.36-5.41-10.46-7.08-4.14-1.63-8.79-2.47-13.95-2.47s-9.63.84-13.73,2.47c-4.11,1.67-7.59,4.03-10.46,7.08-2.91,3.05-5.12,6.68-6.65,10.97-1.56,4.29-2.32,9.01-2.32,14.2s.76,9.92,2.29,14.17c1.53,4.29,3.71,7.96,6.58,11.01,2.87,3.05,6.36,5.38,10.46,7.05,4.14,1.67,8.79,2.51,13.95,2.51s9.63-.84,13.73-2.51c4.11-1.67,7.59-4,10.46-7.05,2.91-3.05,5.12-6.72,6.65-11.01,1.56-4.25,2.33-9.01,2.33-14.17s-.76-9.92-2.29-14.2ZM601.51,75.05c-.8,2.69-1.96,4.94-3.41,6.72-1.45,1.82-3.16,3.16-5.16,4.11-2.03.94-4.21,1.38-6.65,1.38s-4.61-.44-6.65-1.38-3.78-2.29-5.23-4.11c-1.49-1.78-2.65-4.03-3.45-6.72-.84-2.69-1.24-5.78-1.24-9.26s.4-6.61,1.24-9.3c.8-2.69,1.96-4.94,3.41-6.76,1.45-1.82,3.2-3.16,5.2-4.07,2.03-.91,4.21-1.38,6.61-1.38s4.61.47,6.68,1.38c2.03.91,3.78,2.25,5.23,4.07s2.62,4.07,3.41,6.76c.84,2.69,1.24,5.78,1.24,9.3s-.4,6.58-1.24,9.26Z"/>
        <path class="cls-3" d="M666.17,86.5c-1.85.29-3.71.44-5.56.44-4.07,0-6.76-1.05-8.14-3.12-.76-1.24-1.16-3.12-1.16-5.67v-32.15h19.11v-13.3h-19.11V14.2h-16.17v18.49h-12.35v13.3h12.35v34.26c0,4.14.54,7.41,1.56,9.81,1.45,3.38,3.96,5.96,7.48,7.74,3.52,1.82,8.06,2.72,13.62,2.72,2.18,0,4.54-.18,7.05-.47,2.54-.33,4.69-.76,6.54-1.31v-13.37c-1.67.44-3.38.84-5.23,1.13Z"/>
        <g>
          <polygon class="cls-3" points="16.71 7.52 0 7.52 0 51.11 16.71 30.95 16.71 7.52"/>
          <polygon class="cls-3" points="34.11 52.75 44.07 40.91 72.18 7.52 51.44 7.52 30.55 32.69 16.97 49.08 0 69.53 0 93.25 0 98.81 16.71 98.81 16.71 73.42 23.69 65.1 53.87 98.81 75.31 98.81 34.11 52.75"/>
        </g>
      </g>
      <g class="cls-1">
        <path class="cls-4" d="M698.52,53.78c0-.09.02-.19.03-.28h0l.03-.11c.02-.07.03-.13.05-.2l.02-.39h.1c2.19-7.74,8.34-13.84,16.12-15.95.75-.21,1.6-.11,2.31.3.71.41,1.23,1.08,1.42,1.84.22.78.12,1.6-.28,2.3-.4.71-1.06,1.21-1.86,1.43-5.78,1.61-10.34,6.2-11.91,11.96l-.05.14c-.33,1.29-1.55,2.22-2.93,2.22-.05,0-.1,0-.15,0-.24-.01-.43-.06-.61-.1-1.46-.37-2.41-1.69-2.29-3.15Z"/>
        <path class="cls-5" d="M725.06,42.65l.23.06s.02,0,.03,0l.07.03c5.83,1.56,10.28,6,11.93,11.88.35,1.24,1.49,2.15,2.79,2.21.06,0,.12,0,.18,0,.3,0,.56-.04.76-.12.81-.21,1.47-.72,1.87-1.42.42-.74.51-1.56.28-2.31-2.18-7.85-8.38-14.05-16.22-16.16-.05-.02-.14-.07-.15-.04-1.57-.43-3.28.54-3.74,2.15-.05.2-.1.4-.11.61-.07,1.39.79,2.67,2.1,3.11Z"/>
        <path class="cls-6" d="M731.64,59.11c0-5.9-4.79-10.69-10.69-10.69s-10.69,4.79-10.69,10.69,4.79,10.69,10.69,10.69,10.69-4.79,10.69-10.69Z"/>
        <path class="cls-5" d="M741.09,61.19c-.76-.21-1.56-.11-2.26.29-.72.42-1.26,1.11-1.48,1.93l-.04.16c-1.57,5.8-6.17,10.38-12.01,11.95-.81.21-1.47.72-1.87,1.42-.42.73-.51,1.56-.28,2.31.35,1.29,1.47,2.19,2.78,2.26h0s.09,0,.14,0c.24,0,.49-.03.8-.09,7.92-2.12,14.18-8.35,16.34-16.26l.06-.3c.08-.22.09-.43.1-.6.07-1.44-.9-2.74-2.29-3.09Z"/>
        <path class="cls-2" d="M716.47,75.5c-5.8-1.57-10.38-6.16-11.95-11.97-.2-.76-.73-1.44-1.45-1.85-.71-.4-1.54-.51-2.28-.3-.81.22-1.47.72-1.86,1.42-.42.73-.51,1.56-.28,2.31,2.13,7.91,8.37,14.16,16.31,16.3.2.05.4.1.64.11.05,0,.1,0,.15,0,1.38,0,2.6-.95,2.94-2.3.03-.1.04-.21.06-.32,0-.07.02-.14.05-.29.07-1.41-.87-2.72-2.32-3.13Z"/>
      </g>
    </g>
  </g>
</svg>